<svg width="177" height="128" viewBox="0 0 177 128" fill="none" xmlns="http://www.w3.org/2000/svg">
<path d="M120.544 29.4558C117.209 24.1292 126.649 21.705 133.295 28.5406C134.366 29.4888 135.656 30.6216 137.074 31.857C136.359 30.0387 132.475 22.5129 137.931 22.0916C146.144 22.1423 169.934 39.0541 173.48 49.6641C177.453 61.5545 165.442 65.5454 159.831 63.5869C159.585 63.5008 159.378 63.337 159.207 63.1206C154.07 56.632 128.616 33.8726 121.111 29.9661C120.882 29.8468 120.682 29.6773 120.544 29.4558Z" fill="white"/>
<path d="M158.69 53.102C157.916 51.8111 156.346 48.881 156.259 47.4877M156.259 47.4877C153.134 45.6289 143.699 37.6256 137.074 31.857M156.259 47.4877C157.825 47.6855 161.048 47.8215 161.42 46.7823M137.074 31.857C135.656 30.6216 134.366 29.4888 133.295 28.5406C126.649 21.705 117.209 24.1292 120.544 29.4558C120.682 29.6773 120.882 29.8468 121.111 29.9661C128.616 33.8726 154.07 56.632 159.207 63.1206C159.378 63.337 159.585 63.5008 159.831 63.5869C165.442 65.5454 177.453 61.5545 173.48 49.6641C169.934 39.0541 146.144 22.1423 137.931 22.0916C132.475 22.5129 136.359 30.0387 137.074 31.857Z" stroke="black" stroke-width="1.10711" stroke-linecap="round"/>
<path d="M139.013 29.7239C136.356 26.4775 137.568 23.8281 139.803 23.0065C132.879 21.1989 136.571 29.7324 137.595 31.5601C139.432 33.3851 154.125 45.7466 155.96 46.7577C156.774 46.9583 160.438 47.3527 160.842 46.3339C155.957 45.9438 142.385 33.8455 139.013 29.7239Z" fill="#7055FF"/>
<path d="M156.806 56.3181C162.685 61.8325 169.571 60.2081 172.279 58.7067C168.553 64.0912 162.326 63.8278 159.678 63.023C149.91 51.9195 124.772 30.5868 121.105 29.3785C119.47 27.1459 121.5 25.7146 121.906 25.5097C120.485 26.3285 122.731 28.7625 125.583 29.7701C128.435 30.7777 149.458 49.4252 156.806 56.3181Z" fill="#7055FF"/>
<path d="M159.237 52.8511C159.193 52.7895 159.147 52.7239 159.101 52.6549C158.521 51.5974 158.65 48.601 159.207 48.181C159.264 48.1759 159.274 48.1723 159.221 48.1715C159.216 48.1745 159.212 48.1777 159.207 48.181C158.918 48.2071 157.413 48.2711 156.983 48.1792C156.871 48.5842 158.182 51.2905 159.101 52.6549C159.142 52.7309 159.188 52.7968 159.237 52.8511Z" fill="#7055FF"/>
<path d="M171.045 54.641C170.833 52.268 169.593 46.7109 166.327 43.4668" stroke="black" stroke-width="0.705322" stroke-linecap="round"/>
<path d="M164.692 41.8445C164.079 41.0328 162.649 39.3286 161.834 39.0059" stroke="black" stroke-width="0.705322" stroke-linecap="round"/>
<path d="M111.617 27.9884C127.681 29.2289 158.121 61.9188 163.21 69.0988C166.118 73.2009 162.589 77.8538 159.272 77.6633C167.577 91.9281 153.474 88.9536 148.805 84.3361C141.466 75.888 117.527 54.3749 107.177 46.7296C107.123 46.6897 107.073 46.6466 107.024 46.6C95.4898 35.5291 104.133 27.7726 111.617 27.9884Z" fill="white"/>
<path d="M113.071 35.1281C114.249 35.8606 116.455 38.1078 115.858 41.2371M115.858 41.2371C121.387 45.6604 143.115 62.601 152.605 72.6977C155.324 75.591 157.045 77.5353 159.272 77.6633M115.858 41.2371C113.976 40.8322 110.013 40.1832 109.219 40.8266M159.272 77.6633C162.589 77.8538 166.118 73.2009 163.21 69.0988C158.121 61.9188 127.681 29.2289 111.617 27.9884C104.133 27.7726 95.4898 35.5291 107.024 46.6C107.073 46.6466 107.123 46.6897 107.177 46.7296C117.527 54.3749 141.466 75.888 148.805 84.3361C153.474 88.9536 167.577 91.9281 159.272 77.6633Z" stroke="black" stroke-width="1.10711" stroke-linecap="round"/>
<path d="M116.466 40.993C116.456 38.1444 116.174 36.7707 112.984 34.4938C116.576 35.2994 118.049 36.3447 118.702 40.3749C129.676 48.4796 150.945 67.644 153.804 70.7757C156.663 73.9074 157.683 74.6284 161.758 76.0387C159.322 77.8377 157.895 77.0694 155.854 75.2451C141.952 61.6043 132.585 53.9601 116.466 40.993Z" fill="#7055FF"/>
<path d="M145.276 75.892C153.934 84.8152 159.345 84.4575 160.969 83.1633C161.734 90.5773 152.973 87.1607 148.966 84.0184C132.215 64.7458 106.31 46.115 104.673 43.4754C104.673 43.4754 100.38 37.5894 102.607 34.3261C104.427 39.0073 106.295 41.241 110.375 44.8802C118.401 51.4995 136.618 66.9689 145.276 75.892Z" fill="#7055FF"/>
<path d="M115.244 40.5904C110.682 39.4666 109.002 40.0015 108.732 40.4093C109.052 38.9432 113.203 38.7662 115.239 39.1661L115.244 40.5904Z" fill="#7055FF"/>
<path d="M106.266 33.2959C107.279 32.0717 110.487 29.9853 115.212 31.434" stroke="black" stroke-width="0.705322" stroke-linecap="round"/>
<path d="M120.715 34.0605L118.065 32.6453" stroke="black" stroke-width="0.705322" stroke-linecap="round"/>
<path d="M155.021 94.9289C152.966 83.6702 104.777 42.0381 93.5524 38.8036C85.8296 36.5784 83.1289 41.2773 83.8411 45.0539C66.8373 36.8093 67.6396 51.8684 74.6756 55.5339C81.7117 59.1995 117.786 88.7901 136.822 106.204C155.857 123.618 157.075 106.188 155.021 94.9289Z" fill="white"/>
<path d="M141.92 91.2571C140.22 90.3058 136.318 88.8185 134.312 90.4795M134.312 90.4795C125.175 78.4968 92.2334 51.5589 86.7994 49.0392C84.9881 48.1994 84.164 46.7665 83.8411 45.0539M134.312 90.4795C135.346 91.5673 137.348 94.3008 137.085 96.5327M83.8411 45.0539C83.1289 41.2773 85.8296 36.5784 93.5524 38.8036C104.777 42.0381 152.966 83.6702 155.021 94.9289C157.075 106.188 155.857 123.618 136.822 106.204C117.786 88.7901 81.7117 59.1995 74.6756 55.5339C67.6396 51.8684 66.8373 36.8093 83.8411 45.0539Z" stroke="black" stroke-width="1.10711" stroke-linecap="round"/>
<path d="M134.935 86.7117C138.297 86.5088 139.777 87.7875 142.274 90.5525C138.962 89.3035 137.132 88.713 134.335 89.5624C124.985 79.4848 118.114 73.1068 103.714 60.774L104.113 58.3309C117.186 69.2094 130.222 81.7826 134.935 86.7117Z" fill="#7055FF"/>
<path d="M135.153 90.5769C136.582 91.9963 137.746 95.3833 137.819 96.6716C138.015 93.9652 138.261 92.3317 137.594 90.3651C136.851 90.1893 135.317 90.3823 135.153 90.5769Z" fill="#7055FF"/>
<path d="M132.73 96.0789C144.774 106.932 146.411 110.221 155.143 105.158C152.367 126.329 131.112 98.9331 122.749 93.0611C110.204 82.634 103.629 77.1025 89.0799 65.3006L91.1063 62.8519L132.73 96.0789Z" fill="#7055FF"/>
<path d="M152.082 102.726C152.143 100.692 151.651 95.7288 149.197 92.1563" stroke="black" stroke-width="0.705322" stroke-linecap="round"/>
<path d="M148.175 90.7353L146.335 88.0966" stroke="black" stroke-width="0.705322" stroke-linecap="round"/>
<path d="M58.5961 46.8132C58.9951 60.1936 64.7863 70.8775 71.5311 70.6764C78.2759 70.4753 83.4202 59.4653 83.0212 46.0849C82.6222 32.7045 76.831 22.0206 70.0862 22.2217C63.3414 22.4228 58.1971 33.4328 58.5961 46.8132Z" fill="white"/>
<path d="M71.5311 70.6764L71.5473 71.2201L71.5311 70.6764ZM70.0862 22.2217L70.1024 22.7654L70.0862 22.2217ZM59.1398 46.797C59.3373 53.4205 60.8698 59.3496 63.1621 63.5787C65.4712 67.8385 68.457 70.2239 71.5149 70.1327L71.5473 71.2201C67.8603 71.3301 64.5782 68.474 62.2057 64.0971C59.8165 59.6894 58.2539 53.5864 58.0524 46.8294L59.1398 46.797ZM71.5149 70.1327C74.5727 70.0415 77.4111 67.4825 79.4622 63.0926C81.4985 58.7345 82.675 52.7246 82.4775 46.1011L83.5649 46.0687C83.7664 52.8256 82.5702 59.0109 80.4479 63.5532C78.3404 68.0637 75.2343 71.1102 71.5473 71.2201L71.5149 70.1327ZM82.4775 46.1011C82.28 39.4776 80.7475 33.5485 78.4552 29.3194C76.1461 25.0596 73.1603 22.6742 70.1024 22.7654L70.07 21.678C73.757 21.5681 77.0391 24.4241 79.4116 28.801C81.8008 33.2087 83.3634 39.3118 83.5649 46.0687L82.4775 46.1011ZM70.1024 22.7654C67.0446 22.8566 64.2062 25.4156 62.155 29.8055C60.1188 34.1636 58.9423 40.1735 59.1398 46.797L58.0524 46.8294C57.8509 40.0725 59.0471 33.8872 61.1694 29.345C63.2769 24.8345 66.383 21.7879 70.07 21.678L70.1024 22.7654Z" fill="black"/>
<path fill-rule="evenodd" clip-rule="evenodd" d="M71.1828 62.4222C67.5365 62.531 64.369 55.5229 64.108 46.7692C64.0646 45.3133 64.1043 43.9008 64.2175 42.557C64.8483 42.9788 65.5767 43.2183 66.3519 43.2156C68.7437 43.2074 70.6747 40.8965 70.6649 38.054C70.6561 35.4773 69.0554 33.3483 66.9744 32.9789C67.9105 31.5784 69.0241 30.7586 70.2376 30.7224C73.8839 30.6137 77.0514 37.6218 77.3124 46.3755C77.5734 55.1291 74.8291 62.3135 71.1828 62.4222Z" fill="black"/>
<path d="M78.1181 46.7473C78.517 60.1277 84.3082 70.8116 91.053 70.6105C97.7979 70.4094 102.942 59.3994 102.543 46.019C102.144 32.6386 96.353 21.9547 89.6082 22.1558C82.8634 22.3569 77.7191 33.3669 78.1181 46.7473Z" fill="white"/>
<path d="M91.053 70.6105L91.0693 71.1542L91.053 70.6105ZM89.6082 22.1558L89.6244 22.6995L89.6082 22.1558ZM78.6618 46.7311C78.8593 53.3546 80.3917 59.2837 82.6841 63.5128C84.9931 67.7726 87.979 70.158 91.0368 70.0668L91.0693 71.1542C87.3823 71.2642 84.1002 68.4081 81.7277 64.0312C79.3385 59.6235 77.7758 53.5204 77.5744 46.7635L78.6618 46.7311ZM91.0368 70.0668C94.0947 69.9756 96.9331 67.4166 98.9842 63.0267C101.021 58.6686 102.197 52.6587 101.999 46.0352L103.087 46.0028C103.288 52.7597 102.092 58.945 99.9698 63.4872C97.8624 67.9977 94.7562 71.0443 91.0693 71.1542L91.0368 70.0668ZM101.999 46.0352C101.802 39.4117 100.269 33.4826 97.9771 29.2535C95.6681 24.9937 92.6822 22.6083 89.6244 22.6995L89.592 21.6121C93.2789 21.5021 96.5611 24.3582 98.9336 28.7351C101.323 33.1428 102.885 39.2458 103.087 46.0028L101.999 46.0352ZM89.6244 22.6995C86.5666 22.7907 83.7281 25.3497 81.677 29.7396C79.6407 34.0977 78.4643 40.1076 78.6618 46.7311L77.5744 46.7635C77.3729 40.0066 78.5691 33.8213 80.6914 29.2791C82.7989 24.7685 85.905 21.722 89.592 21.6121L89.6244 22.6995Z" fill="black"/>
<path fill-rule="evenodd" clip-rule="evenodd" d="M86.9987 62.3675C83.3524 62.4763 80.1849 55.4682 79.9239 46.7145C79.8895 45.5628 79.9072 44.4382 79.9721 43.3533C80.8108 44.1758 81.8846 44.6681 83.0536 44.6641C85.7227 44.6549 87.8776 42.0622 87.8666 38.8731C87.8557 35.6841 85.683 33.1062 83.0139 33.1154C82.8933 33.1158 82.7736 33.1215 82.6552 33.1323C83.6186 31.6052 84.7811 30.7057 86.0535 30.6677C89.6998 30.559 92.8673 37.5671 93.1283 46.3208C93.3893 55.0744 90.645 62.2588 86.9987 62.3675Z" fill="black"/>
<path d="M31.8721 43.134L32.1064 43.2568L32.2292 43.0226L40.0573 28.0949C41.7407 24.8848 42.0505 21.9906 41.4375 19.6437C40.8246 17.297 39.2942 15.5198 37.343 14.5435C33.4759 12.6086 28.0272 13.8376 24.7849 19.7897C21.7551 18.2594 19.0148 18.017 16.7756 18.6424C14.48 19.2835 12.7354 20.8304 11.7657 22.7817C9.8204 26.6963 11.0054 32.1914 16.9445 35.3059L31.8721 43.134Z" fill="#7055FF" stroke="black" stroke-width="0.528991"/>
<path d="M23.9249 22.8129L24.1591 22.9357L24.282 22.7014C27.3942 16.7666 32.6369 15.639 36.2586 17.4512C38.0766 18.3608 39.5045 20.016 40.078 22.2119C40.6515 24.4076 40.3759 27.1665 38.7411 30.2838L31.0359 44.9772L16.3425 37.272C10.6352 34.279 9.58574 29.0861 11.3918 25.4516C12.2978 23.6284 13.9254 22.1855 16.0702 21.5865C18.214 20.9878 20.8989 21.226 23.9249 22.8129Z" fill="white" stroke="black" stroke-width="0.528991"/>
<path d="M12.3489 31.809C10.7126 28.0262 12.6168 24.239 15.9716 22.9508" stroke="black" stroke-width="0.528991" stroke-linecap="round"/>
<path d="M16.7954 22.667C17.6513 22.4 18.2503 22.4278 19.1196 22.72" stroke="black" stroke-width="0.528991" stroke-linecap="round"/>
<path d="M105.569 118.582C97.1262 116.583 92.533 108.865 90.6661 103.296C90.2228 101.973 91.3337 100.729 92.7215 100.865L99.1781 101.497C99.9002 101.568 100.531 102.009 100.846 102.663C102.405 105.902 105.093 111.367 107.455 115.833C108.209 117.258 107.139 118.954 105.569 118.582Z" fill="white" stroke="black" stroke-width="1.10711" stroke-linecap="round"/>
<path d="M106.702 115.193L97.3642 109.026L94.7349 106.51L101.659 105.328L106.702 115.193Z" fill="#7055FF"/>
<path d="M98.1121 77.9674C117.365 74.3451 125.594 91.6858 127.302 100.809C129.638 115.493 121.677 122.125 118.163 110.589C114.65 99.0535 107.312 103.674 102.222 104.679C97.1333 105.683 88.1196 107.683 85.5727 103.285C79.7233 92.921 87.3945 79.5564 98.1121 77.9674Z" fill="white" stroke="black" stroke-width="1.10711" stroke-linecap="round"/>
<path d="M94.169 103.038C87.5128 104.729 85.5143 95.7624 84.5949 91.9855C81.0896 111.177 95.8265 105.254 103.969 103.853C111.013 102.641 112.18 102.644 115.371 104.311C112.63 99.6732 102.489 100.925 94.169 103.038Z" fill="#7055FF"/>
<path d="M88.3513 90.1271C89.4245 86.6645 94.298 79.9335 105.206 80.7099" stroke="black" stroke-width="0.705322" stroke-linecap="round"/>
<path d="M112.947 83.3279C112.2 82.7879 110.378 81.709 109.076 81.7135" stroke="black" stroke-width="0.705322" stroke-linecap="round"/>
<path d="M40.1101 55.3527C47.8772 59.2198 50.5943 67.781 51.1456 73.6287C51.2765 75.017 49.9116 75.9764 48.5911 75.5284L42.4476 73.444C41.7605 73.2108 41.2466 72.6375 41.0889 71.9294C40.3076 68.4211 38.9332 62.4874 37.6485 57.6013C37.2384 56.0417 38.6665 54.634 40.1101 55.3527Z" fill="white" stroke="black" stroke-width="1.10711" stroke-linecap="round"/>
<path d="M38.2359 58.3951L45.9265 66.524L47.9146 69.5728L40.9028 69.1482L38.2359 58.3951Z" fill="#7055FF"/>
<path d="M38.1343 96.5994C18.5625 95.7476 14.4931 76.9897 14.9049 67.7172C15.97 52.8862 25.231 48.2394 26.0286 60.2719C26.8262 72.3044 35.0232 69.474 40.2073 69.6535C45.3915 69.8331 54.6239 69.9354 56.1037 74.7976C59.4424 86.2205 48.9324 97.4898 38.1343 96.5994Z" fill="white" stroke="black" stroke-width="1.10711" stroke-linecap="round"/>
<path d="M47.6753 73.0829C54.5415 72.9508 54.4481 82.1366 54.4844 86.0237C62.263 68.133 46.5653 70.5478 38.3174 70.0602C31.1823 69.6384 30.0462 69.3704 27.319 67.0208C28.9326 72.1606 39.0925 73.2481 47.6753 73.0829Z" fill="#7055FF"/>
<path d="M50.4044 86.9787C48.5717 90.1064 42.2949 95.5525 31.8492 92.3153" stroke="black" stroke-width="0.705322" stroke-linecap="round"/>
<path d="M24.9063 88.005C25.5117 88.701 27.0399 90.1658 28.3089 90.4577" stroke="black" stroke-width="0.705322" stroke-linecap="round"/>
</svg>
