<svg width="35" height="36" viewBox="0 0 35 36" fill="none" xmlns="http://www.w3.org/2000/svg">
<rect y="0.46875" width="35" height="35" rx="4.08" fill="#252525"/>
<path d="M21.9548 8.27392C20.7644 9.81952 19.2408 10.5472 17.7625 10.5472C16.2843 10.5471 14.7607 9.81942 13.5702 8.27387C13.0066 7.54221 11.9722 7.15011 11.0326 7.58377L4.37156 10.6581C3.5181 11.052 3.06538 11.9972 3.29335 12.9091L4.05772 15.9666C4.31979 17.0149 5.38206 17.6522 6.43036 17.3901L8.91509 16.769C9.32671 16.666 9.72544 16.9774 9.72544 17.4017V29.1966C9.72544 30.2771 10.6014 31.1531 11.682 31.1531H23.8431C24.9237 31.1531 25.7996 30.2771 25.7996 29.1966V17.4017C25.7996 16.9774 26.1983 16.666 26.61 16.769L29.0947 17.3901C30.143 17.6522 31.2053 17.0149 31.4673 15.9666L32.2317 12.9091C32.4597 11.9972 32.007 11.052 31.1535 10.6581L24.4925 7.58379C23.5528 7.15012 22.5184 7.54223 21.9548 8.27392Z" fill="white" stroke="#F6F6F6" stroke-width="1.30435" stroke-linecap="round"/>
</svg>
