<svg width="225" height="119" viewBox="0 0 225 119" fill="none" xmlns="http://www.w3.org/2000/svg">
<path d="M95.43 14.9583C98.0673 10.6332 90.37 8.7125 84.9701 14.2895C84.0963 15.0659 83.0444 15.9937 81.8873 17.0054C82.4677 15.5201 85.624 9.36992 81.1592 9.0415C74.4405 9.10591 55.0249 22.9687 52.1541 31.634C48.948 41.3115 58.7074 44.5446 63.3117 42.9699C63.5436 42.8906 63.7404 42.7326 63.9019 42.5292C68.152 37.1786 88.7311 18.7052 94.898 15.441C95.1129 15.3273 95.3021 15.168 95.43 14.9583Z" fill="white"/>
<path d="M64.2637 34.397C64.8932 33.3418 66.1691 30.9471 66.2364 29.8102M66.2364 29.8102C68.7879 28.2851 76.4841 21.7299 81.8873 17.0054M66.2364 29.8102C64.9562 29.976 62.319 30.0959 62.0122 29.2493M81.8873 17.0054C83.0444 15.9937 84.0963 15.0659 84.9701 14.2895C90.37 8.7125 98.0673 10.6332 95.43 14.9583C95.3021 15.168 95.1129 15.3273 94.898 15.441C88.7311 18.7052 68.152 37.1786 63.9019 42.5292C63.7404 42.7326 63.5436 42.8906 63.3117 42.9699C58.7074 44.5446 48.948 41.3115 52.1541 31.634C55.0249 22.9687 74.4405 9.10591 81.1592 9.0415C85.624 9.36992 82.4677 15.5201 81.8873 17.0054Z" stroke="black" stroke-width="1.04218" stroke-linecap="round"/>
<path d="M80.2954 15.2712C82.4594 12.6154 81.4607 10.4575 79.6296 9.7935C85.2893 8.29955 82.293 15.2713 81.4607 16.7651C79.9625 18.259 67.9772 28.3843 66.4791 29.2143C65.8132 29.3803 62.8169 29.7122 62.484 28.8823C66.4791 28.5503 77.5481 18.6429 80.2954 15.2712Z" fill="#7055FF"/>
<path d="M65.8132 37.0158C61.0191 41.5307 55.3816 40.2249 53.1621 39.0076C56.225 43.3898 61.3187 43.1574 63.4828 42.4934C71.4428 33.4082 91.9478 15.9351 94.9441 14.9392C96.2758 13.1133 94.6112 11.9514 94.2782 11.7854C95.4435 12.4494 93.6124 14.4412 91.2819 15.2712C88.9515 16.1011 71.8059 31.3721 65.8132 37.0158Z" fill="#7055FF"/>
<path d="M63.8155 34.1933C63.8515 34.1428 63.8885 34.0892 63.9263 34.0328C64.3978 33.1684 64.2835 30.7243 63.8265 30.3832C63.7805 30.3792 63.7722 30.3763 63.8155 30.3755C63.8192 30.3779 63.8229 30.3805 63.8265 30.3832C64.0629 30.4037 65.2951 30.4516 65.6466 30.3755C65.7394 30.7056 64.6738 32.9171 63.9263 34.0328C63.8924 34.0949 63.8556 34.1488 63.8155 34.1933Z" fill="#7055FF"/>
<path d="M54.1606 35.6875C54.3271 33.751 55.3259 29.2139 57.9893 26.5581" stroke="black" stroke-width="0.663957" stroke-linecap="round"/>
<path d="M59.3208 25.2301C59.8202 24.5661 60.9854 23.1718 61.6513 22.9062" stroke="black" stroke-width="0.663957" stroke-linecap="round"/>
<path d="M102.702 13.7785C89.5634 14.8355 64.7524 41.5882 60.6092 47.4597C58.2421 50.8142 61.1423 54.6 63.855 54.4353C57.1009 66.0954 68.6305 63.6293 72.4368 59.8494C78.4148 52.9398 97.9259 35.3338 106.377 29.0618C106.428 29.0241 106.475 28.9834 106.521 28.9394C115.912 19.8806 108.821 13.5815 102.702 13.7785Z" fill="white"/>
<path d="M101.532 19.607C100.571 20.2078 98.7723 22.0471 99.2691 24.5983M99.2691 24.5983C94.7585 28.2222 77.0306 42.1027 69.2958 50.3658C67.0792 52.7337 65.6767 54.3247 63.855 54.4353M99.2691 24.5983C100.808 24.2627 104.048 23.7221 104.7 24.2448M63.855 54.4353C61.1423 54.6 58.2421 50.8142 60.6092 47.4597C64.7524 41.5882 89.5634 14.8355 102.702 13.7785C108.821 13.5815 115.912 19.8806 106.521 28.9394C106.475 28.9834 106.428 29.0241 106.377 29.0618C97.9259 35.3338 78.4148 52.9398 72.4368 59.8494C68.6305 63.6293 57.1009 66.0954 63.855 54.4353Z" stroke="black" stroke-width="1.04218" stroke-linecap="round"/>
<path d="M98.7715 24.401C98.7715 22.0772 98.9985 20.9557 101.601 19.0894C98.6649 19.7566 97.4629 20.6134 96.9404 23.903C87.9853 30.5453 70.6394 46.2387 68.3089 48.8014C65.9784 51.3642 65.1461 51.9552 61.8169 53.1171C63.8144 54.5779 64.9797 53.9471 66.6443 52.4532C77.9791 41.2864 85.621 35.0243 98.7715 24.401Z" fill="#7055FF"/>
<path d="M75.3004 52.9511C68.2425 60.2547 63.8146 59.978 62.4829 58.9268C61.8779 64.9771 69.0354 62.1653 72.3041 59.5907C85.954 43.8217 107.095 28.5507 108.426 26.3929C108.426 26.3929 111.922 21.5792 110.091 18.9233C108.615 22.7472 107.093 24.5746 103.765 27.5548C97.2179 32.9771 82.3584 45.6476 75.3004 52.9511Z" fill="#7055FF"/>
<path d="M99.7704 24.069C103.499 23.1395 104.875 23.571 105.097 23.903C104.831 22.7079 101.435 22.5751 99.7704 22.9071V24.069Z" fill="#7055FF"/>
<path d="M107.095 18.0929C106.263 17.097 103.632 15.4039 99.7705 16.599" stroke="black" stroke-width="0.663957" stroke-linecap="round"/>
<path d="M95.2764 18.7571L97.4404 17.5952" stroke="black" stroke-width="0.663957" stroke-linecap="round"/>
<path d="M67.3808 68.5087C69.0301 59.3184 108.336 25.2212 117.51 22.5512C123.822 20.7142 126.044 24.5399 125.472 27.6227C139.36 20.8493 138.746 33.1363 133 36.1463C127.254 39.1563 97.825 63.3965 82.301 77.6557C66.7771 91.9148 65.7315 77.6989 67.3808 68.5087Z" fill="white"/>
<path d="M78.0884 65.4767C79.4765 64.6959 82.6642 63.4716 84.3097 64.821M84.3097 64.821C91.7513 55.0202 118.625 32.9528 123.063 30.8821C124.543 30.1919 125.213 29.0207 125.472 27.6227M84.3097 64.821C83.467 65.7112 81.8371 67.9468 82.0587 69.7668M125.472 27.6227C126.044 24.5399 123.822 20.7142 117.51 22.5512C108.336 25.2212 69.0301 59.3184 67.3808 68.5087C65.7315 77.6989 66.7771 91.9148 82.301 77.6557C97.825 63.3965 127.254 39.1563 133 36.1463C138.746 33.1363 139.36 20.8493 125.472 27.6227Z" stroke="black" stroke-width="1.04218" stroke-linecap="round"/>
<path d="M83.789 61.7479C81.0381 61.5918 79.8313 62.6391 77.7964 64.9017C80.5025 63.8735 81.9976 63.3867 84.2884 64.0718C91.9087 55.8246 97.5124 50.6023 109.258 40.5013C115.088 35.9486 118.409 33.5617 124.406 29.546L124.905 27.2222C116.179 32.1361 89.4446 53.9701 83.789 61.7479Z" fill="#7055FF"/>
<path d="M83.6224 64.9022C82.4572 66.0641 81.5139 68.8306 81.4584 69.8818C81.2899 67.6744 81.0841 66.3424 81.6249 64.7362C82.2323 64.5906 83.4872 64.7439 83.6224 64.9022Z" fill="#7055FF"/>
<path d="M85.6199 69.3842C75.7973 78.2717 74.4671 80.9589 67.3091 76.8537C69.6396 94.1166 86.9517 71.708 93.7766 66.8943C104.01 58.3531 109.374 53.8222 121.243 44.1538L134.726 34.3604L135.892 31.8706C117.613 44.0681 106.535 52.4083 85.6199 69.3842Z" fill="#7055FF"/>
<path d="M69.8062 74.8619C69.7507 73.202 70.1391 69.1519 72.1367 66.2305" stroke="black" stroke-width="0.663957" stroke-linecap="round"/>
<path d="M72.9697 65.068L74.4679 62.9102" stroke="black" stroke-width="0.663957" stroke-linecap="round"/>
<ellipse cx="5.56547" cy="13.3231" rx="5.56547" ry="13.3231" transform="matrix(0.999654 0.0262955 -0.0264455 0.99965 117.21 25.5493)" fill="black"/>
<ellipse cx="5.56547" cy="13.3231" rx="5.56547" ry="13.3231" transform="matrix(0.999654 0.0262955 -0.0264455 0.99965 133.659 25.5493)" fill="black"/>
<path d="M149.325 87.3124C143.737 83.632 142.154 76.9269 142.062 72.2478C142.036 70.9368 143.394 70.1507 144.595 70.681L148.999 72.6261C149.624 72.9022 150.058 73.4842 150.147 74.1615C150.515 76.9767 151.152 81.5543 151.803 85.4577C152.053 86.954 150.593 88.1474 149.325 87.3124Z" fill="white" stroke="black" stroke-width="1.04218" stroke-linecap="round"/>
<path d="M151.458 85.2201L145.788 78.0519L144.392 75.4292L150.074 76.2876L151.458 85.2201Z" fill="#7055FF"/>
<path d="M154.346 54.1868C170.231 56.3119 172.169 71.8503 171.153 79.3538C169.196 91.3257 161.309 94.4232 161.542 84.5886C161.776 74.754 154.889 76.4535 150.678 75.928C146.468 75.4026 138.953 74.6435 138.104 70.5847C136.222 61.0594 145.613 52.6728 154.346 54.1868Z" fill="white" stroke="black" stroke-width="1.04218" stroke-linecap="round"/>
<path d="M144.845 72.5955C139.24 72.2001 139.991 64.7434 140.247 61.5825C132.595 75.5493 145.563 74.7366 152.248 75.7367C158.031 76.6018 158.937 76.9027 160.986 79.0115C160.049 74.7172 151.85 73.0897 144.845 72.5955Z" fill="#7055FF"/>
<path d="M143.641 61.1048C145.364 58.6976 150.878 54.7321 159.152 58.1273" stroke="black" stroke-width="0.663957" stroke-linecap="round"/>
<path d="M164.493 62.1382C164.051 61.5284 162.913 60.2262 161.9 59.8962" stroke="black" stroke-width="0.663957" stroke-linecap="round"/>
<path d="M124.689 94.6152C119.1 90.9348 117.518 84.2297 117.426 79.5505C117.4 78.2396 118.758 77.4534 119.959 77.9837L124.362 79.9288C124.988 80.205 125.422 80.787 125.511 81.4642C125.879 84.2795 126.516 88.857 127.167 92.7604C127.416 94.2568 125.957 95.4501 124.689 94.6152Z" fill="white" stroke="black" stroke-width="1.04218" stroke-linecap="round"/>
<path d="M126.822 92.5228L121.152 85.3547L119.756 82.7319L125.439 83.5903L126.822 92.5228Z" fill="#7055FF"/>
<path d="M129.711 61.49C145.596 63.6151 147.534 79.1535 146.518 86.6571C144.561 98.629 136.674 101.726 136.908 91.8918C137.141 82.0572 130.255 83.7567 126.044 83.2313C121.833 82.7058 114.318 81.9467 113.469 77.8879C111.587 68.3626 120.978 59.976 129.711 61.49Z" fill="white" stroke="black" stroke-width="1.04218" stroke-linecap="round"/>
<path d="M120.21 79.8992C114.605 79.5038 115.356 72.0471 115.612 68.8862C107.96 82.853 120.928 82.0403 127.613 83.0404C133.396 83.9055 134.302 84.2064 136.351 86.3152C135.414 82.0209 127.215 80.3934 120.21 79.8992Z" fill="#7055FF"/>
<path d="M119.005 68.4085C120.728 66.0013 126.243 62.0358 134.517 65.431" stroke="black" stroke-width="0.663957" stroke-linecap="round"/>
<path d="M139.858 69.4419C139.416 68.8321 138.278 67.5299 137.265 67.1999" stroke="black" stroke-width="0.663957" stroke-linecap="round"/>
<path d="M144.393 37.3387C144.104 48.2551 139.396 56.9869 133.878 56.8418C128.36 56.6966 124.12 47.7294 124.409 36.813C124.698 25.8966 129.405 17.1647 134.924 17.3099C140.442 17.4551 144.682 26.4222 144.393 37.3387Z" fill="white"/>
<path d="M134.924 17.3099L134.91 17.8218L134.924 17.3099ZM143.881 37.3251C143.738 42.7203 142.503 47.5503 140.646 50.9953C138.773 54.469 136.355 56.3947 133.892 56.3299L133.865 57.3536C136.919 57.434 139.614 55.0664 141.547 51.4813C143.496 47.8676 144.759 42.8734 144.905 37.3522L143.881 37.3251ZM133.892 56.3299C131.428 56.2651 129.115 54.215 127.429 50.6478C125.756 47.1099 124.778 42.2217 124.921 36.8265L123.897 36.7995C123.751 42.3207 124.748 47.3743 126.503 51.0855C128.244 54.7672 130.81 57.2733 133.865 57.3536L133.892 56.3299ZM124.921 36.8265C125.064 31.4313 126.299 26.6013 128.156 23.1563C130.029 19.6827 132.447 17.757 134.91 17.8218L134.937 16.798C131.883 16.7177 129.187 19.0853 127.255 22.6703C125.306 26.2841 124.043 31.2782 123.897 36.7995L124.921 36.8265ZM134.91 17.8218C137.374 17.8866 139.687 19.9367 141.373 23.5039C143.046 27.0417 144.024 31.9299 143.881 37.3251L144.905 37.3522C145.051 31.831 144.054 26.7774 142.299 23.0662C140.558 19.3844 137.992 16.8784 134.937 16.798L134.91 17.8218Z" fill="black"/>
<path fill-rule="evenodd" clip-rule="evenodd" d="M134.14 50.1076C137.124 50.1861 139.695 44.46 139.884 37.3181C139.916 36.1304 139.879 34.9784 139.783 33.8826C139.268 34.2282 138.673 34.4255 138.039 34.4255C136.082 34.4255 134.496 32.5456 134.496 30.2267C134.496 28.1247 135.799 26.3835 137.5 26.0761C136.731 24.9362 135.817 24.2706 134.824 24.2444C131.841 24.166 129.269 29.892 129.08 37.0339C128.891 44.1759 131.157 50.0291 134.14 50.1076Z" fill="black"/>
<path fill-rule="evenodd" clip-rule="evenodd" d="M124.405 34.8342H144.281C143.934 25.0502 139.925 17.3757 134.823 17.2415C129.631 17.1049 125.156 24.8275 124.405 34.8342Z" fill="white"/>
<path d="M124.405 34.8342L123.894 34.7959L123.853 35.3462H124.405V34.8342ZM144.281 34.8342V35.3462H144.812L144.793 34.816L144.281 34.8342ZM134.823 17.2415L134.836 16.7297L134.823 17.2415ZM124.405 35.3462H144.281V34.3221H124.405V35.3462ZM134.81 17.7534C137.087 17.8133 139.234 19.5657 140.883 22.66C142.522 25.7342 143.598 30.0185 143.77 34.8524L144.793 34.816C144.617 29.8659 143.515 25.4209 141.787 22.1783C140.069 18.9559 137.661 16.804 134.836 16.7297L134.81 17.7534ZM124.915 34.8725C125.287 29.9281 126.577 25.5759 128.39 22.4938C130.216 19.3902 132.492 17.6924 134.81 17.7534L134.836 16.7297C131.962 16.654 129.404 18.7492 127.507 21.9745C125.597 25.2212 124.274 29.7335 123.894 34.7959L124.915 34.8725Z" fill="black"/>
<path d="M135.891 19.2559C137.389 20.4731 140.552 23.9036 141.217 27.8873" stroke="black" stroke-width="0.663957" stroke-linecap="round"/>
<path d="M141.717 29.7134L142.05 32.0372" stroke="black" stroke-width="0.663957" stroke-linecap="round"/>
<path d="M128.422 37.3406C128.133 48.257 123.425 56.9889 117.907 56.8437C112.388 56.6986 108.149 47.7314 108.438 36.8149C108.727 25.8985 113.434 17.1667 118.953 17.3118C124.471 17.457 128.711 26.4242 128.422 37.3406Z" fill="white"/>
<path d="M118.953 17.3118L118.939 17.8237L118.953 17.3118ZM127.91 37.3271C127.767 42.7223 126.532 47.5523 124.675 50.9973C122.802 54.4709 120.384 56.3967 117.92 56.3318L117.893 57.3556C120.948 57.436 123.643 55.0683 125.576 51.4833C127.524 47.8695 128.788 42.8754 128.934 37.3542L127.91 37.3271ZM117.92 56.3318C115.457 56.267 113.144 54.2169 111.458 50.6497C109.785 47.1119 108.807 42.2237 108.95 36.8285L107.926 36.8014C107.78 42.3226 108.777 47.3763 110.532 51.0874C112.272 54.7692 114.839 57.2752 117.893 57.3556L117.92 56.3318ZM108.95 36.8285C109.092 31.4333 110.327 26.6033 112.185 23.1583C114.058 19.6846 116.475 17.7589 118.939 17.8237L118.966 16.8C115.912 16.7196 113.216 19.0872 111.283 22.6723C109.335 26.286 108.072 31.2802 107.926 36.8014L108.95 36.8285ZM118.939 17.8237C121.403 17.8885 123.716 19.9386 125.402 23.5059C127.075 27.0437 128.053 31.9319 127.91 37.3271L128.934 37.3542C129.08 31.8329 128.082 26.7793 126.328 23.0681C124.587 19.3864 122.021 16.8803 118.966 16.8L118.939 17.8237Z" fill="black"/>
<path fill-rule="evenodd" clip-rule="evenodd" d="M121.201 49.7771C124.184 49.8555 126.756 44.1295 126.945 36.9876C126.97 36.0478 126.952 35.1304 126.896 34.2455C126.212 34.919 125.335 35.3237 124.378 35.3237C122.194 35.3237 120.424 33.2146 120.424 30.6128C120.424 28.0111 122.194 25.902 124.378 25.902C124.477 25.902 124.575 25.9063 124.672 25.9148C123.88 24.6718 122.926 23.9413 121.885 23.9139C118.902 23.8354 116.33 29.5615 116.141 36.7034C115.952 43.8453 118.217 49.6986 121.201 49.7771Z" fill="black"/>
<path fill-rule="evenodd" clip-rule="evenodd" d="M108.424 34.8339H128.301C127.953 25.0498 123.944 17.3752 118.843 17.241C113.65 17.1045 109.175 24.8271 108.424 34.8339Z" fill="white"/>
<path d="M108.424 34.8339L107.914 34.7956L107.872 35.346H108.424V34.8339ZM128.301 34.8339V35.346H128.832L128.813 34.8157L128.301 34.8339ZM118.843 17.241L118.829 17.7529L118.843 17.241ZM108.424 35.346H128.301V34.3219H108.424V35.346ZM118.829 17.7529C121.106 17.8128 123.253 19.5652 124.903 22.6596C126.541 25.7338 127.617 30.0182 127.789 34.8521L128.813 34.8157C128.637 29.8656 127.535 25.4206 125.806 22.1779C124.089 18.9555 121.681 16.8035 118.856 16.7292L118.829 17.7529ZM108.935 34.8722C109.306 29.9278 110.596 25.5755 112.409 22.4933C114.235 19.3898 116.511 17.692 118.829 17.7529L118.856 16.7292C115.981 16.6535 113.424 18.7488 111.527 21.9741C109.617 25.2208 108.294 29.7332 107.914 34.7956L108.935 34.8722Z" fill="black"/>
<path d="M119.579 18.9233C121.077 20.3066 124.306 24.069 125.238 28.0527" stroke="black" stroke-width="0.663957" stroke-linecap="round"/>
<path d="M125.737 30.0444L126.07 32.8663" stroke="black" stroke-width="0.663957" stroke-linecap="round"/>
<rect width="75.0937" height="7.14126" rx="1.99187" transform="matrix(0.681607 -0.731718 0.733649 0.679529 168.351 54.9478)" fill="white" stroke="black" stroke-width="0.876017"/>
<rect width="75.0937" height="7.14126" rx="1.99187" transform="matrix(-0.681607 -0.731718 -0.733649 0.679529 56.6479 54.9478)" fill="white" stroke="black" stroke-width="0.876017"/>
<rect x="49.4976" y="53.4482" width="126.178" height="64.7358" rx="1.99187" fill="white" stroke="black" stroke-width="0.876017"/>
<path d="M59.1521 113.039C52.8162 113.316 51.1695 108.578 49.9966 103.245V115.695C49.8885 117.192 50.829 117.852 52.8265 117.687H172.013C174.932 117.95 175.381 117.09 175.176 114.699V56.1045C175.109 54.5001 174.619 54.1778 173.345 54.1126H165.355C170.401 55.8975 171.271 56.8427 171.015 64.4039V110.363C171.015 112.204 169.516 113.694 167.675 113.683L59.1521 113.039Z" fill="#7055FF"/>
<path d="M123.412 105.403H99.9298C98.8298 105.403 97.938 104.511 97.938 103.411V83.6583C97.938 82.5582 97.0462 81.6664 95.9461 81.6664H93.1937C91.3827 81.6664 90.5114 79.4455 91.8392 78.2141L110.62 60.7965C111.361 60.1087 112.501 60.086 113.269 60.7435L133.626 78.1611C135.031 79.3639 134.181 81.6664 132.331 81.6664H127.396C126.296 81.6664 125.404 82.5582 125.404 83.6583V103.411C125.404 104.511 124.512 105.403 123.412 105.403Z" fill="#7055FF" stroke="black" stroke-width="0.331979"/>
<path d="M53.3257 82.8287V61.9141" stroke="black" stroke-width="0.663957" stroke-linecap="round"/>
<path d="M53.1597 59.0922C53.1597 57.9856 54.1917 55.8056 58.32 55.9384" stroke="black" stroke-width="0.663957" stroke-linecap="round"/>
</svg>
