<svg width="39" height="33" viewBox="0 0 39 33" fill="none" xmlns="http://www.w3.org/2000/svg">
<path d="M27.6841 1.61677C26.5863 3.06827 25.2038 3.74042 23.8749 3.7404C22.5459 3.74038 21.1635 3.06818 20.0656 1.61672C19.4971 0.864995 18.4338 0.457309 17.4766 0.91834L11.4145 3.83788C10.585 4.23738 10.1463 5.16113 10.3608 6.05647L11.0557 8.95701C11.311 10.0227 12.3919 10.671 13.4523 10.3943L15.531 9.85206C15.9442 9.74426 16.3478 10.0561 16.3478 10.4831V21.8383C16.3478 22.9189 17.2237 23.7948 18.3043 23.7948H29.4454C30.526 23.7948 31.4019 22.9189 31.4019 21.8383V10.4831C31.4019 10.0561 31.8055 9.74426 32.2187 9.85206L34.2974 10.3943C35.3578 10.671 36.4387 10.0227 36.694 8.95701L37.3889 6.05647C37.6034 5.16113 37.1647 4.23738 36.3352 3.83788L30.2732 0.918352C29.3159 0.457313 28.2526 0.865022 27.6841 1.61677Z" fill="white" stroke="#252525" stroke-width="1.30435" stroke-linecap="round"/>
<path d="M7.52346 13.2653L6.80825 15.1311C6.69451 15.4278 6.40961 15.6237 6.09182 15.6237H3.53453C2.26328 15.6237 1.23274 16.6543 1.23274 17.9255V29.4345C1.23274 30.7057 2.26328 31.7363 3.53453 31.7363H25.4652C26.7364 31.7363 27.767 30.7057 27.767 29.4345V17.9255C27.767 16.6543 26.7364 15.6237 25.4652 15.6237H22.1726C21.8548 15.6237 21.5699 15.4278 21.4562 15.1311L20.741 13.2653C20.3997 12.3751 19.545 11.7874 18.5917 11.7874H9.67275C8.71939 11.7874 7.8647 12.3751 7.52346 13.2653Z" fill="#252525" stroke="#F6F6F6" stroke-width="1.53453" stroke-linecap="round"/>
<ellipse cx="20.3818" cy="17.9255" rx="0.735286" ry="0.767264" fill="#F6F6F6"/>
<ellipse cx="14.4997" cy="22.5297" rx="3.67643" ry="3.83632" fill="#F6F6F6"/>
<path d="M19.5774 22.3396C19.5774 25.1095 17.4295 27.3268 14.814 27.3268C12.1985 27.3268 10.0506 25.1095 10.0506 22.3396C10.0506 19.5697 12.1985 17.3524 14.814 17.3524C17.4295 17.3524 19.5774 19.5697 19.5774 22.3396Z" stroke="#F6F6F6" stroke-width="0.767264"/>
</svg>
