<svg width="363" height="361" viewBox="0 0 363 361" fill="none" xmlns="http://www.w3.org/2000/svg">
<path d="M102.175 104.018C107.062 95.9795 92.796 92.4099 82.7876 102.776C81.1682 104.219 79.2184 105.944 77.0737 107.824C78.1496 105.063 83.9996 93.6316 75.7243 93.0211C63.2713 93.1409 27.2851 118.908 21.9642 135.015C16.0223 153.001 34.1072 159.011 42.6422 156.086C43.0735 155.939 43.4393 155.644 43.7393 155.265C51.6182 145.319 89.755 110.987 101.187 104.917C101.586 104.705 101.938 104.408 102.175 104.018Z" fill="white"/>
<path d="M44.409 140.151C45.5758 138.189 47.9406 133.738 48.0653 131.625M48.0653 131.625C52.7945 128.79 67.0591 116.606 77.0737 107.824M48.0653 131.625C45.6924 131.933 40.8046 132.156 40.2359 130.582M77.0737 107.824C79.2184 105.944 81.1682 104.219 82.7876 102.776C92.796 92.4099 107.062 95.9795 102.175 104.018C101.938 104.408 101.586 104.705 101.187 104.917C89.755 110.987 51.6182 145.319 43.7393 155.265C43.4393 155.644 43.0735 155.939 42.6422 156.086C34.1072 159.011 16.0223 153.001 21.9642 135.015C27.2851 118.908 63.2713 93.1409 75.7243 93.0211C83.9996 93.6316 78.1496 105.063 77.0737 107.824Z" stroke="black" stroke-width="1.93716" stroke-linecap="round"/>
<path d="M74.1229 104.601C78.1338 99.6646 76.2826 95.6536 72.8887 94.4194C83.3788 91.6425 77.8253 104.601 76.2826 107.378C73.5058 110.155 51.2914 128.975 48.5146 130.518C47.2805 130.826 41.7269 131.443 41.1099 129.901C48.5146 129.284 69.0307 110.868 74.1229 104.601Z" fill="#7055FF"/>
<path d="M47.2805 145.019C38.3948 153.411 27.9458 150.984 23.832 148.721C29.509 156.866 38.9501 156.434 42.9611 155.2C57.7148 138.313 95.7201 105.835 101.274 103.984C103.742 100.59 100.657 98.4304 100.04 98.1218C102.199 99.356 98.8055 103.058 94.486 104.601C90.1666 106.144 58.3877 134.529 47.2805 145.019Z" fill="#7055FF"/>
<path d="M43.5781 139.774C43.6448 139.68 43.7133 139.58 43.7834 139.475C44.6572 137.869 44.4455 133.326 43.5984 132.692C43.5131 132.684 43.4977 132.679 43.5781 132.677C43.5849 132.682 43.5917 132.687 43.5984 132.692C44.0365 132.73 46.3204 132.819 46.972 132.677C47.1439 133.291 45.1688 137.401 43.7834 139.475C43.7206 139.591 43.6522 139.691 43.5781 139.774Z" fill="#7055FF"/>
<path d="M25.6826 142.55C25.9911 138.951 27.8423 130.518 32.7789 125.581" stroke="black" stroke-width="1.23413" stroke-linecap="round"/>
<path d="M35.2471 123.113C36.1727 121.879 38.3324 119.287 39.5665 118.793" stroke="black" stroke-width="1.23413" stroke-linecap="round"/>
<path d="M115.654 101.825C91.3026 103.79 45.3162 153.517 37.6369 164.43C33.2495 170.665 38.625 177.702 43.6529 177.396C31.1344 199.069 52.5041 194.485 59.559 187.46C70.6389 174.616 106.802 141.892 122.466 130.233C122.56 130.163 122.648 130.087 122.733 130.005C140.139 113.167 126.997 101.459 115.654 101.825Z" fill="white"/>
<path d="M113.486 112.659C111.704 113.776 108.371 117.195 109.292 121.937M109.292 121.937C100.932 128.672 68.0736 154.473 53.7373 169.832C49.6289 174.233 47.0293 177.19 43.6529 177.396M109.292 121.937C112.144 121.313 118.149 120.308 119.357 121.28M43.6529 177.396C38.625 177.702 33.2495 170.665 37.6369 164.43C45.3162 153.517 91.3026 103.79 115.654 101.825C126.997 101.459 140.139 113.167 122.733 130.005C122.648 130.087 122.56 130.163 122.466 130.233C106.802 141.892 70.6389 174.616 59.559 187.46C52.5041 194.485 31.1344 199.069 43.6529 177.396Z" stroke="black" stroke-width="1.93716" stroke-linecap="round"/>
<path d="M108.369 121.57C108.369 117.251 108.79 115.166 113.614 111.697C108.172 112.938 105.944 114.53 104.975 120.645C88.3775 132.991 56.2272 162.161 51.9078 166.925C47.5883 171.688 46.0457 172.787 39.875 174.946C43.5774 177.662 45.7371 176.489 48.8224 173.712C69.8311 152.956 83.9952 141.316 108.369 121.57Z" fill="#7055FF"/>
<path d="M64.8669 174.638C51.7851 188.213 43.5781 187.699 41.1099 185.745C39.9885 196.991 53.2549 191.765 59.3133 186.979C84.613 157.669 123.797 129.284 126.265 125.273C126.265 125.273 132.744 116.325 129.35 111.389C126.615 118.496 123.793 121.893 117.626 127.432C105.49 137.511 77.9487 161.062 64.8669 174.638Z" fill="#7055FF"/>
<path d="M110.221 120.953C117.132 119.225 119.683 120.028 120.094 120.645C119.601 118.423 113.306 118.176 110.221 118.793V120.953Z" fill="#7055FF"/>
<path d="M123.796 109.846C122.253 107.995 117.379 104.848 110.221 107.069" stroke="black" stroke-width="1.23413" stroke-linecap="round"/>
<path d="M101.891 111.08L105.902 108.92" stroke="black" stroke-width="1.23413" stroke-linecap="round"/>
<path d="M50.19 203.555C53.2469 186.473 126.099 123.094 143.103 118.131C154.801 114.717 158.921 121.828 157.861 127.558C183.601 114.968 182.463 137.807 171.813 143.401C161.163 148.996 106.617 194.053 77.8442 220.557C49.0709 247.061 47.1331 220.637 50.19 203.555Z" fill="white"/>
<path d="M70.0361 197.919C72.609 196.468 78.5172 194.192 81.5672 196.7M81.5672 196.7C95.3599 178.483 145.169 137.465 153.396 133.617C156.138 132.334 157.38 130.157 157.861 127.558M81.5672 196.7C80.0054 198.355 76.9844 202.511 77.395 205.893M157.861 127.558C158.921 121.828 154.801 114.717 143.103 118.131C126.099 123.094 53.2469 186.473 50.19 203.555C47.1331 220.637 49.0709 247.061 77.8442 220.557C106.617 194.053 161.163 148.996 171.813 143.401C182.463 137.807 183.601 114.968 157.861 127.558Z" stroke="black" stroke-width="1.93716" stroke-linecap="round"/>
<path d="M80.6023 190.99C75.5035 190.7 73.2669 192.646 69.4951 196.852C74.5108 194.941 77.2819 194.036 81.5279 195.309C95.6519 179.98 106.038 170.273 127.808 151.498C138.615 143.035 144.769 138.599 155.884 131.134L156.81 126.815C140.637 135.949 91.0847 176.533 80.6023 190.99Z" fill="#7055FF"/>
<path d="M80.2935 196.852C78.1338 199.012 76.3854 204.154 76.2826 206.108C75.9703 202.005 75.5888 199.529 76.5911 196.544C77.717 196.273 80.0428 196.558 80.2935 196.852Z" fill="#7055FF"/>
<path d="M83.9952 205.182C65.7893 221.702 63.3238 226.697 50.0566 219.066C54.3762 251.154 86.4636 209.502 99.1135 200.554C118.081 184.678 128.022 176.257 150.021 158.286L175.013 140.082L177.172 135.454C143.293 158.126 122.76 173.629 83.9952 205.182Z" fill="#7055FF"/>
<path d="M54.685 215.364C54.5821 212.279 55.302 204.75 59.0044 199.32" stroke="black" stroke-width="1.23413" stroke-linecap="round"/>
<path d="M60.5479 197.161L63.3246 193.15" stroke="black" stroke-width="1.23413" stroke-linecap="round"/>
<path d="M200.206 228.008C189.861 221.167 186.929 208.716 186.756 200.022C186.708 197.583 189.233 196.12 191.464 197.108L199.61 200.717C200.771 201.231 201.577 202.313 201.741 203.572C202.424 208.803 203.604 217.308 204.81 224.563C205.273 227.346 202.56 229.564 200.206 228.008Z" fill="white" stroke="black" stroke-width="1.93716" stroke-linecap="round"/>
<path d="M204.172 224.127L193.663 210.803L191.075 205.928L201.607 207.524L204.172 224.127Z" fill="#7055FF"/>
<path d="M209.525 166.445C238.966 170.394 242.559 199.276 240.675 213.224C237.048 235.476 222.43 241.234 222.863 222.954C223.296 204.674 210.532 207.833 202.727 206.856C194.922 205.879 180.994 204.468 179.421 196.924C175.933 179.219 193.339 163.63 209.525 166.445Z" fill="white" stroke="black" stroke-width="1.93716" stroke-linecap="round"/>
<path d="M191.915 200.662C181.527 199.927 182.918 186.067 183.392 180.191C169.21 206.152 193.246 204.641 205.636 206.5C216.354 208.108 218.034 208.668 221.832 212.587C220.095 204.605 204.899 201.58 191.915 200.662Z" fill="#7055FF"/>
<path d="M189.683 179.304C192.876 174.83 203.097 167.459 218.433 173.77" stroke="black" stroke-width="1.23413" stroke-linecap="round"/>
<path d="M228.331 181.225C227.511 180.091 225.403 177.671 223.526 177.057" stroke="black" stroke-width="1.23413" stroke-linecap="round"/>
<path d="M154.544 239.733C144.199 232.892 141.267 220.441 141.094 211.747C141.046 209.307 143.571 207.845 145.802 208.833L153.948 212.441C155.109 212.955 155.915 214.037 156.079 215.296C156.762 220.528 157.942 229.033 159.148 236.287C159.611 239.071 156.898 241.289 154.544 239.733Z" fill="white" stroke="black" stroke-width="1.93716" stroke-linecap="round"/>
<path d="M158.509 235.851L148.001 222.527L145.413 217.652L155.945 219.248L158.509 235.851Z" fill="#7055FF"/>
<path d="M163.863 178.169C193.304 182.119 196.897 211.001 195.013 224.948C191.386 247.201 176.768 252.958 177.201 234.678C177.634 216.398 164.87 219.557 157.065 218.58C149.26 217.603 135.331 216.193 133.758 208.648C130.271 190.943 147.677 175.354 163.863 178.169Z" fill="white" stroke="black" stroke-width="1.93716" stroke-linecap="round"/>
<path d="M146.252 212.386C135.865 211.651 137.256 197.791 137.73 191.915C123.548 217.876 147.584 216.365 159.974 218.224C170.692 219.832 172.372 220.392 176.17 224.311C174.433 216.329 159.237 213.304 146.252 212.386Z" fill="#7055FF"/>
<path d="M144.021 191.028C147.214 186.554 157.435 179.183 172.771 185.494" stroke="black" stroke-width="1.23413" stroke-linecap="round"/>
<path d="M182.669 192.949C181.849 191.815 179.74 189.395 177.864 188.781" stroke="black" stroke-width="1.23413" stroke-linecap="round"/>
<path fill-rule="evenodd" clip-rule="evenodd" d="M191.287 116.935C191.141 116.467 190.705 116.156 190.214 116.133C181.892 115.752 174.942 110.105 172.62 102.447C172.415 101.77 171.677 101.384 171.058 101.726C163.277 106.025 157.316 119.948 156.876 136.609C156.341 156.9 164.199 173.568 174.427 173.837C184.655 174.107 193.381 157.877 193.916 137.586C194.117 129.966 193.135 122.857 191.287 116.935Z" fill="white"/>
<path d="M156.876 136.609L155.925 136.584L156.876 136.609ZM174.427 173.837L174.402 174.789H174.402L174.427 173.837ZM193.916 137.586L192.965 137.561L193.916 137.586ZM172.62 102.447L173.531 102.171L172.62 102.447ZM190.214 116.133L190.171 117.084L190.214 116.133ZM191.287 116.935L190.379 117.219L191.287 116.935ZM190.258 115.182C182.347 114.82 175.739 109.453 173.531 102.171L171.71 102.723C174.146 110.758 181.436 116.684 190.171 117.084L190.258 115.182ZM157.828 136.634C158.045 128.404 159.626 120.875 162.094 114.895C164.573 108.89 167.897 104.56 171.519 102.559L170.598 100.893C166.439 103.191 162.892 107.973 160.334 114.169C157.767 120.39 156.147 128.153 155.925 136.584L157.828 136.634ZM174.452 172.886C169.889 172.766 165.603 168.957 162.476 162.325C159.376 155.749 157.563 146.663 157.828 136.634L155.925 136.584C155.654 146.846 157.503 156.239 160.755 163.137C163.98 169.979 168.737 174.64 174.402 174.789L174.452 172.886ZM192.965 137.561C192.7 147.59 190.411 156.568 186.968 162.971C183.497 169.429 179.016 173.006 174.452 172.886L174.402 174.789C180.067 174.938 185.063 170.536 188.645 163.873C192.256 157.156 194.597 147.873 194.868 137.611L192.965 137.561ZM190.379 117.219C192.192 123.03 193.163 130.034 192.965 137.561L194.868 137.611C195.071 129.898 194.078 122.684 192.196 116.652L190.379 117.219ZM173.531 102.171C173.188 101.039 171.855 100.198 170.598 100.893L171.519 102.559C171.534 102.551 171.54 102.551 171.542 102.551C171.547 102.551 171.561 102.552 171.582 102.562C171.628 102.584 171.684 102.638 171.71 102.723L173.531 102.171ZM190.171 117.084C190.295 117.09 190.361 117.164 190.379 117.219L192.196 116.652C191.921 115.77 191.114 115.222 190.258 115.182L190.171 117.084Z" fill="black"/>
<path fill-rule="evenodd" clip-rule="evenodd" d="M174.911 161.781C180.441 161.927 185.208 151.284 185.558 138.009C185.616 135.801 185.548 133.66 185.37 131.623C184.416 132.265 183.312 132.632 182.137 132.632C178.51 132.632 175.57 129.138 175.57 124.827C175.57 120.92 177.986 117.684 181.139 117.112C179.712 114.994 178.02 113.757 176.18 113.708C170.65 113.562 165.883 124.205 165.533 137.48C165.183 150.756 169.382 161.635 174.911 161.781Z" fill="black"/>
<path fill-rule="evenodd" clip-rule="evenodd" d="M132.056 115.648C131.506 115.571 130.964 115.868 130.778 116.391C128.744 122.093 127.469 128.926 127.275 136.294C126.74 156.585 134.597 173.253 144.826 173.522C155.054 173.792 163.779 157.562 164.315 137.271C164.706 122.429 160.607 109.526 154.375 103.56C153.803 103.013 152.885 103.291 152.578 104.02C149.648 110.963 142.777 115.837 134.768 115.837C133.848 115.837 132.942 115.772 132.056 115.648Z" fill="white"/>
<path d="M127.275 136.294L128.226 136.319L127.275 136.294ZM144.826 173.522L144.8 174.474L144.826 173.522ZM164.315 137.271L165.266 137.296L164.315 137.271ZM154.375 103.56L153.717 104.248L154.375 103.56ZM152.578 104.02L153.455 104.39L152.578 104.02ZM130.778 116.391L129.881 116.071L130.778 116.391ZM132.056 115.648L132.188 114.705L132.056 115.648ZM128.226 136.319C128.418 129.041 129.677 122.309 131.674 116.711L129.881 116.071C127.81 121.877 126.52 128.81 126.323 136.269L128.226 136.319ZM144.851 172.571C140.287 172.451 136.001 168.642 132.875 162.01C129.775 155.434 127.962 146.348 128.226 136.319L126.323 136.269C126.053 146.531 127.901 155.924 131.153 162.822C134.379 169.664 139.136 174.324 144.8 174.474L144.851 172.571ZM163.363 137.246C163.099 147.275 160.809 156.253 157.367 162.656C153.895 169.114 149.414 172.691 144.851 172.571L144.8 174.474C150.465 174.623 155.461 170.22 159.043 163.558C162.654 156.841 164.995 147.558 165.266 137.296L163.363 137.246ZM153.717 104.248C156.674 107.078 159.19 111.628 160.917 117.361C162.64 123.082 163.557 129.916 163.363 137.246L165.266 137.296C165.464 129.784 164.527 122.746 162.74 116.812C160.957 110.893 158.308 106.008 155.033 102.873L153.717 104.248ZM151.701 103.65C148.915 110.253 142.381 114.885 134.768 114.885V116.789C143.173 116.789 150.382 111.673 153.455 104.39L151.701 103.65ZM134.768 114.885C133.892 114.885 133.031 114.824 132.188 114.705L131.923 116.59C132.853 116.721 133.803 116.789 134.768 116.789V114.885ZM155.033 102.873C153.882 101.771 152.213 102.436 151.701 103.65L153.455 104.39C153.493 104.299 153.565 104.247 153.627 104.23C153.655 104.222 153.674 104.224 153.682 104.226C153.687 104.227 153.698 104.23 153.717 104.248L155.033 102.873ZM131.674 116.711C131.695 116.651 131.78 116.57 131.923 116.59L132.188 114.705C131.232 114.571 130.233 115.086 129.881 116.071L131.674 116.711Z" fill="black"/>
<path fill-rule="evenodd" clip-rule="evenodd" d="M150.931 161.781C156.461 161.927 161.227 151.284 161.577 138.009C161.623 136.262 161.591 134.557 161.487 132.913C160.219 134.164 158.593 134.916 156.821 134.916C152.773 134.916 149.492 130.996 149.492 126.16C149.492 121.324 152.773 117.404 156.821 117.404C157.004 117.404 157.185 117.412 157.365 117.427C155.896 115.117 154.129 113.759 152.199 113.708C146.669 113.562 141.903 124.205 141.553 137.48C141.202 150.756 145.401 161.635 150.931 161.781Z" fill="black"/>
<path d="M162.054 237.578C138.914 233.876 50.3642 236.961 15.5 237.578L170.384 271.825C188.177 264.318 233.634 226.78 162.054 237.578Z" fill="#D6D6D6"/>
<path d="M1.29775 238.73C32.9465 235.373 117.169 231.135 200.868 241.038" stroke="black" stroke-width="1.93759" stroke-linecap="round"/>
<path d="M162.181 237.221C193.829 233.865 278.052 229.627 361.751 239.53" stroke="black" stroke-width="1.93759" stroke-linecap="round"/>
<path d="M300.18 164.477C317.076 161.739 332.993 173.217 335.73 190.113L335.987 191.701C338.289 205.905 330.51 219.825 317.207 225.31L270.807 244.441L273.173 193.787C273.856 179.145 284.705 166.984 299.174 164.64L300.18 164.477Z" fill="white" stroke="black" stroke-width="1.93759"/>
<circle cx="304.83" cy="196.082" r="20.037" transform="rotate(35.7972 304.83 196.082)" fill="#7055FF" stroke="black" stroke-width="1.93759"/>
<path d="M240.73 250.846C266.03 244.367 269.732 243.441 298.425 253.314" stroke="black" stroke-width="1.93759" stroke-linecap="round"/>
<path d="M325.885 178.34C329.176 183.688 334.647 196.667 330.204 205.8" stroke="black" stroke-width="1.23413" stroke-linecap="round"/>
<path d="M328.044 210.736C327.427 211.765 325.946 214.007 324.959 214.747" stroke="black" stroke-width="1.23413" stroke-linecap="round"/>
</svg>
