<svg width="340" height="181" viewBox="0 0 340 181" fill="none" xmlns="http://www.w3.org/2000/svg">
<path d="M42.5821 171.051C3.76297 145.7 12.8736 64.7605 22.2813 27.4598C43.5725 1.21787 66.8441 27.4598 115.368 27.4598C163.892 27.4598 159.931 -5.21963 238.163 0.722083C316.396 6.66379 361.454 128.964 329.765 163.624C298.076 198.284 253.513 146.789 225.29 145.799C197.067 144.809 91.1061 202.74 42.5821 171.051Z" fill="#7055FF"/>
<path d="M45.0349 96.8197C47.6524 92.507 39.9973 90.5932 34.6264 96.1559C33.7571 96.9305 32.7106 97.8562 31.5594 98.8656C32.1369 97.3837 35.277 91.2476 30.835 90.9199C24.1507 90.9842 4.83453 104.815 1.97844 113.461C-1.21015 123.113 8.49134 126.339 13.0741 124.772C13.3079 124.692 13.5064 124.532 13.6691 124.327C17.903 118.985 38.3602 100.569 44.4992 97.3071C44.7158 97.192 44.9065 97.0313 45.0349 96.8197Z" fill="white"/>
<path d="M14.026 116.217C14.6524 115.165 15.9217 112.775 15.9886 111.641M15.9886 111.641C18.5271 110.119 26.1838 103.579 31.5594 98.8656M15.9886 111.641C14.715 111.807 12.0913 111.926 11.7861 111.081M31.5594 98.8656C32.7106 97.8562 33.7571 96.9305 34.6264 96.1559C39.9973 90.5932 47.6524 92.507 45.0349 96.8197C44.9065 97.0313 44.7158 97.192 44.4992 97.3071C38.3602 100.569 17.903 118.985 13.6691 124.327C13.5064 124.532 13.3079 124.692 13.0741 124.772C8.49134 126.339 -1.21015 123.113 1.97844 113.461C4.83453 104.815 24.1507 90.9842 30.835 90.9199C35.277 91.2476 32.1369 97.3837 31.5594 98.8656Z" stroke="black" stroke-width="1.05" stroke-linecap="round"/>
<path d="M52.2695 95.6462C39.1983 96.7008 14.5144 123.392 10.3924 129.25C8.03735 132.597 10.9227 136.374 13.6215 136.21C6.90201 147.843 18.3726 145.383 22.1594 141.612C28.1065 134.718 47.5166 117.153 55.9248 110.895C55.9759 110.857 56.0239 110.816 56.0697 110.772C65.4115 101.734 58.3576 95.4497 52.2695 95.6462Z" fill="white"/>
<path d="M51.1057 101.461C50.1493 102.061 48.36 103.896 48.8544 106.441M48.8544 106.441C44.3668 110.057 26.7297 123.906 19.0345 132.15C16.8293 134.512 15.4339 136.1 13.6215 136.21M48.8544 106.441C50.3851 106.106 53.6087 105.567 54.2572 106.089M13.6215 136.21C10.9227 136.374 8.03735 132.597 10.3924 129.25C14.5144 123.392 39.1983 96.7008 52.2695 95.6462C58.3576 95.4497 65.4115 101.734 56.0697 110.772C56.0239 110.816 55.9759 110.857 55.9248 110.895C47.5166 117.153 28.1065 134.718 22.1594 141.612C18.3726 145.383 6.90201 147.843 13.6215 136.21Z" stroke="black" stroke-width="1.05" stroke-linecap="round"/>
<path d="M17.1299 150.251C18.7707 141.082 57.8753 107.063 67.0022 104.399C73.2816 102.566 75.4929 106.383 74.9238 109.459C88.7402 102.701 88.1293 114.96 82.4129 117.963C76.6965 120.966 47.4182 145.15 31.9737 159.377C16.5292 173.603 15.489 159.42 17.1299 150.251Z" fill="white"/>
<path d="M27.7826 147.226C29.1636 146.447 32.335 145.225 33.9721 146.572M33.9721 146.572C41.3756 136.793 68.1115 114.776 72.5272 112.71C73.999 112.022 74.6658 110.853 74.9238 109.459M33.9721 146.572C33.1338 147.46 31.5122 149.69 31.7326 151.506M74.9238 109.459C75.4929 106.383 73.2816 102.566 67.0022 104.399C57.8753 107.063 18.7707 141.082 17.1299 150.251C15.489 159.42 16.5292 173.603 31.9737 159.377C47.4182 145.15 76.6965 120.966 82.4129 117.963C88.1293 114.96 88.7402 102.701 74.9238 109.459Z" stroke="black" stroke-width="1.05" stroke-linecap="round"/>
<path d="M103.77 118.9C98.3406 122.702 96.9299 129.389 96.9452 134.047C96.9495 135.369 98.3372 136.129 99.533 135.564L103.824 133.537C104.446 133.244 104.869 132.647 104.941 131.962C105.238 129.154 105.758 124.599 106.308 120.703C106.522 119.188 105.023 118.022 103.77 118.9Z" fill="white" stroke="black" stroke-width="1.05" stroke-linecap="round"/>
<path d="M109.6 151.795C125.347 149.291 126.898 133.746 125.705 126.286C123.468 114.393 115.549 111.494 116.02 121.298C116.491 131.101 109.6 129.573 105.425 130.199C101.25 130.825 93.7938 131.764 93.0483 135.833C91.408 145.379 100.952 153.516 109.6 151.795Z" fill="white" stroke="black" stroke-width="1.05" stroke-linecap="round"/>
<ellipse cx="71.1084" cy="120.345" rx="5.47105" ry="13.1343" transform="rotate(1.51108 71.1084 120.345)" fill="black"/>
<ellipse cx="87.2776" cy="120.345" rx="5.47105" ry="13.1343" transform="rotate(1.51108 87.2776 120.345)" fill="black"/>
<path d="M70.8329 174.132C65.4036 170.33 63.9929 163.643 64.0082 158.985C64.0125 157.662 65.4002 156.902 66.596 157.467L70.8871 159.494C71.5093 159.788 71.9316 160.385 72.004 161.069C72.3013 163.878 72.8212 168.433 73.371 172.329C73.5847 173.843 72.0856 175.009 70.8329 174.132Z" fill="white" stroke="black" stroke-width="1.05" stroke-linecap="round"/>
<path d="M76.6634 141.237C92.4103 143.741 93.9611 159.286 92.7682 166.745C90.5315 178.639 82.612 181.538 83.083 171.734C83.554 161.931 76.6634 163.459 72.4881 162.833C68.3127 162.207 60.8568 161.268 60.1112 157.199C58.4709 147.653 68.0146 139.515 76.6634 141.237Z" fill="white" stroke="black" stroke-width="1.05" stroke-linecap="round"/>
<path d="M93.7241 119.368C93.4317 130.451 88.6654 139.317 83.0783 139.17C77.4912 139.022 73.199 129.918 73.4914 118.834C73.7838 107.75 78.55 98.8847 84.1371 99.0321C89.7242 99.1795 94.0164 108.284 93.7241 119.368Z" fill="white"/>
<path d="M84.1371 99.0321L84.151 98.5073L84.1371 99.0321ZM93.1992 119.354C93.0548 124.831 91.8044 129.735 89.9243 133.232C88.0282 136.759 85.5821 138.71 83.0922 138.645L83.0645 139.694C86.1617 139.776 88.8922 137.369 90.8491 133.729C92.8221 130.059 94.101 124.988 94.2489 119.382L93.1992 119.354ZM83.0922 138.645C80.6022 138.579 78.2624 136.501 76.5549 132.879C74.8619 129.288 73.8717 124.325 74.0162 118.848L72.9666 118.82C72.8187 124.426 73.8285 129.558 75.6052 133.327C77.3675 137.065 79.9673 139.613 83.0645 139.694L83.0922 138.645ZM74.0162 118.848C74.1607 113.37 75.4111 108.467 77.2912 104.97C79.1872 101.443 81.6334 99.4912 84.1233 99.5569L84.151 98.5073C81.0538 98.4256 78.3233 100.833 76.3663 104.473C74.3934 108.143 73.1145 113.214 72.9666 118.82L74.0162 118.848ZM84.1233 99.5569C86.6132 99.6226 88.953 101.701 90.6605 105.323C92.3536 108.914 93.3437 113.876 93.1992 119.354L94.2489 119.382C94.3968 113.775 93.387 108.644 91.6103 104.875C89.848 101.137 87.2482 98.589 84.151 98.5073L84.1233 99.5569Z" fill="black"/>
<path d="M77.5534 119.368C77.261 130.451 72.4948 139.317 66.9077 139.17C61.3206 139.022 57.0284 129.918 57.3207 118.834C57.6131 107.75 62.3794 98.8847 67.9665 99.0321C73.5536 99.1795 77.8458 108.284 77.5534 119.368Z" fill="white"/>
<path d="M67.9665 99.0321L67.9803 98.5073L67.9665 99.0321ZM77.0286 119.354C76.8841 124.831 75.6337 129.735 73.7536 133.232C71.8576 136.759 69.4114 138.71 66.9215 138.645L66.8938 139.694C69.991 139.776 72.7215 137.369 74.6785 133.729C76.6514 130.059 77.9303 124.988 78.0782 119.382L77.0286 119.354ZM66.9215 138.645C64.4316 138.579 62.0918 136.501 60.3843 132.879C58.6912 129.288 57.7011 124.325 57.8456 118.848L56.7959 118.82C56.648 124.426 57.6578 129.558 59.4345 133.327C61.1968 137.065 63.7966 139.613 66.8938 139.694L66.9215 138.645ZM57.8456 118.848C57.99 113.37 59.2404 108.467 61.1205 104.97C63.0166 101.443 65.4627 99.4912 67.9526 99.5569L67.9803 98.5073C64.8831 98.4256 62.1526 100.833 60.1957 104.473C58.2227 108.143 56.9438 113.214 56.7959 118.82L57.8456 118.848ZM67.9526 99.5569C70.4426 99.6226 72.7824 101.701 74.4899 105.323C76.1829 108.914 77.1731 113.876 77.0286 119.354L78.0782 119.382C78.2261 113.775 77.2163 108.644 75.4396 104.875C73.6773 101.137 71.0775 98.589 67.9803 98.5073L67.9526 99.5569Z" fill="black"/>
<path fill-rule="evenodd" clip-rule="evenodd" d="M70.245 132.332C73.2655 132.412 75.8692 126.598 76.0605 119.347C76.0857 118.393 76.0679 117.462 76.011 116.564C75.3189 117.246 74.4313 117.657 73.4635 117.657C71.2526 117.657 69.4603 115.515 69.4603 112.874C69.4603 110.232 71.2526 108.091 73.4635 108.091C73.5629 108.091 73.6615 108.095 73.759 108.104C72.9568 106.842 71.9915 106.1 70.9377 106.073C67.9172 105.993 65.3135 111.807 65.1222 119.058C64.9309 126.309 67.2245 132.252 70.245 132.332Z" fill="black"/>
<path fill-rule="evenodd" clip-rule="evenodd" d="M83.3437 132.332C86.3642 132.412 88.9679 126.598 89.1592 119.347C89.191 118.141 89.1541 116.972 89.0566 115.86C88.5357 116.21 87.9336 116.41 87.2923 116.41C85.3111 116.41 83.705 114.501 83.705 112.147C83.705 110.013 85.0241 108.246 86.746 107.933C85.9665 106.775 85.0417 106.099 84.0364 106.073C81.0158 105.993 78.4122 111.807 78.2209 119.058C78.0296 126.309 80.3231 132.252 83.3437 132.332Z" fill="black"/>
<mask id="path-20-inside-1_3157_31527" fill="white">
<path fill-rule="evenodd" clip-rule="evenodd" d="M288.174 26.4694C288.174 27.1032 288.15 27.731 288.103 28.3516C290.703 27.1408 293.574 26.4694 296.591 26.4694C308.35 26.4694 317.883 36.6668 317.883 49.246C317.883 52.3464 317.303 55.3022 316.255 57.9963C324.76 61.6804 330.756 70.5628 330.756 80.9351C330.756 94.6081 320.337 105.692 307.484 105.692C303.733 105.692 300.189 104.748 297.051 103.071C296.403 115.026 287.134 124.508 275.796 124.508C269.877 124.508 264.522 121.924 260.664 117.754C257.382 125.809 249.874 131.44 241.136 131.44C232.929 131.44 225.807 126.473 222.253 119.196C219.092 127.537 211.445 133.42 202.513 133.42C192.367 133.42 183.879 125.828 181.741 115.664C178.343 118.121 174.245 119.556 169.835 119.556C159.957 119.556 151.651 112.361 149.246 102.603C148.526 102.681 147.796 102.721 147.058 102.721C135.299 102.721 125.767 92.524 125.767 79.9448C125.767 69.8559 131.898 61.2991 140.393 58.3066C139.266 55.5298 138.641 52.4659 138.641 49.246C138.641 36.6668 148.174 26.4694 159.933 26.4694C163.899 26.4694 167.613 27.63 170.792 29.651C172.832 19.3472 181.383 11.6152 191.622 11.6152C198.204 11.6152 204.089 14.8109 207.995 19.8313C208.332 19.7878 208.669 19.7454 209.008 19.7041C212.42 11.9955 219.758 6.66373 228.261 6.66373C236.31 6.66373 243.316 11.4417 246.935 18.4909C249.957 9.84692 257.749 3.69287 266.883 3.69287C278.642 3.69287 288.174 13.8903 288.174 26.4694ZM112.398 110.644C118.141 110.644 122.796 105.767 122.796 99.7505C122.796 93.7344 118.141 88.8574 112.398 88.8574C106.656 88.8574 102 93.7344 102 99.7505C102 105.767 106.656 110.644 112.398 110.644Z"/>
</mask>
<path fill-rule="evenodd" clip-rule="evenodd" d="M288.174 26.4694C288.174 27.1032 288.15 27.731 288.103 28.3516C290.703 27.1408 293.574 26.4694 296.591 26.4694C308.35 26.4694 317.883 36.6668 317.883 49.246C317.883 52.3464 317.303 55.3022 316.255 57.9963C324.76 61.6804 330.756 70.5628 330.756 80.9351C330.756 94.6081 320.337 105.692 307.484 105.692C303.733 105.692 300.189 104.748 297.051 103.071C296.403 115.026 287.134 124.508 275.796 124.508C269.877 124.508 264.522 121.924 260.664 117.754C257.382 125.809 249.874 131.44 241.136 131.44C232.929 131.44 225.807 126.473 222.253 119.196C219.092 127.537 211.445 133.42 202.513 133.42C192.367 133.42 183.879 125.828 181.741 115.664C178.343 118.121 174.245 119.556 169.835 119.556C159.957 119.556 151.651 112.361 149.246 102.603C148.526 102.681 147.796 102.721 147.058 102.721C135.299 102.721 125.767 92.524 125.767 79.9448C125.767 69.8559 131.898 61.2991 140.393 58.3066C139.266 55.5298 138.641 52.4659 138.641 49.246C138.641 36.6668 148.174 26.4694 159.933 26.4694C163.899 26.4694 167.613 27.63 170.792 29.651C172.832 19.3472 181.383 11.6152 191.622 11.6152C198.204 11.6152 204.089 14.8109 207.995 19.8313C208.332 19.7878 208.669 19.7454 209.008 19.7041C212.42 11.9955 219.758 6.66373 228.261 6.66373C236.31 6.66373 243.316 11.4417 246.935 18.4909C249.957 9.84692 257.749 3.69287 266.883 3.69287C278.642 3.69287 288.174 13.8903 288.174 26.4694ZM112.398 110.644C118.141 110.644 122.796 105.767 122.796 99.7505C122.796 93.7344 118.141 88.8574 112.398 88.8574C106.656 88.8574 102 93.7344 102 99.7505C102 105.767 106.656 110.644 112.398 110.644Z" fill="#D9D9D9"/>
<path d="M288.103 28.3516L287.106 28.2754L286.975 29.9796L288.525 29.2582L288.103 28.3516ZM316.255 57.9963L315.323 57.6335L314.973 58.5311L315.857 58.9139L316.255 57.9963ZM297.051 103.071L297.522 102.189L296.137 101.448L296.052 103.016L297.051 103.071ZM260.664 117.754L261.398 117.074L260.33 115.921L259.737 117.376L260.664 117.754ZM222.253 119.196L223.151 118.757L222.137 116.679L221.318 118.841L222.253 119.196ZM181.741 115.664L182.72 115.459L182.403 113.952L181.155 114.854L181.741 115.664ZM149.246 102.603L150.217 102.363L150.007 101.513L149.137 101.608L149.246 102.603ZM140.393 58.3066L140.725 59.2498L141.713 58.9016L141.319 57.9306L140.393 58.3066ZM170.792 29.651L170.256 30.4949L171.49 31.279L171.773 29.8451L170.792 29.651ZM207.995 19.8313L207.206 20.4453L207.556 20.8961L208.123 20.8231L207.995 19.8313ZM209.008 19.7041L209.129 20.6967L209.692 20.6279L209.922 20.1089L209.008 19.7041ZM246.935 18.4909L246.046 18.9476L247.11 21.0207L247.879 18.8209L246.935 18.4909ZM289.1 28.4279C289.149 27.7819 289.174 27.1287 289.174 26.4694H287.174C287.174 27.0777 287.151 27.6801 287.106 28.2754L289.1 28.4279ZM296.591 25.4694C293.424 25.4694 290.41 26.1746 287.681 27.4451L288.525 29.2582C290.997 28.1071 293.724 27.4694 296.591 27.4694V25.4694ZM318.883 49.246C318.883 36.1791 308.965 25.4694 296.591 25.4694V27.4694C307.735 27.4694 316.883 37.1545 316.883 49.246H318.883ZM317.187 58.3591C318.28 55.5503 318.883 52.4715 318.883 49.246H316.883C316.883 52.2214 316.327 55.0542 315.323 57.6335L317.187 58.3591ZM331.756 80.9351C331.756 70.1783 325.536 60.9267 316.652 57.0787L315.857 58.9139C323.984 62.434 329.756 70.9473 329.756 80.9351H331.756ZM307.484 106.692C320.947 106.692 331.756 95.1012 331.756 80.9351H329.756C329.756 94.115 319.727 104.692 307.484 104.692V106.692ZM296.579 103.952C299.857 105.705 303.563 106.692 307.484 106.692V104.692C303.903 104.692 300.521 103.791 297.522 102.189L296.579 103.952ZM275.796 125.508C287.726 125.508 297.376 115.548 298.049 103.125L296.052 103.016C295.429 114.504 286.543 123.508 275.796 123.508V125.508ZM259.93 118.433C263.962 122.791 269.576 125.508 275.796 125.508V123.508C270.178 123.508 265.083 121.057 261.398 117.074L259.93 118.433ZM241.136 132.44C250.325 132.44 258.173 126.519 261.59 118.131L259.737 117.376C256.592 125.098 249.423 130.44 241.136 130.44V132.44ZM221.354 119.634C225.058 127.217 232.506 132.44 241.136 132.44V130.44C233.352 130.44 226.556 125.729 223.151 118.757L221.354 119.634ZM202.513 134.42C211.907 134.42 219.897 128.235 223.188 119.55L221.318 118.841C218.287 126.839 210.983 132.42 202.513 132.42V134.42ZM180.763 115.87C182.986 126.442 191.84 134.42 202.513 134.42V132.42C192.894 132.42 184.772 125.214 182.72 115.459L180.763 115.87ZM169.835 120.556C174.467 120.556 178.768 119.048 182.327 116.475L181.155 114.854C177.918 117.195 174.023 118.556 169.835 118.556V120.556ZM148.275 102.842C150.777 112.994 159.445 120.556 169.835 120.556V118.556C160.47 118.556 152.525 111.728 150.217 102.363L148.275 102.842ZM147.058 103.721C147.833 103.721 148.599 103.679 149.354 103.597L149.137 101.608C148.454 101.683 147.76 101.721 147.058 101.721V103.721ZM124.767 79.9448C124.767 93.0117 134.684 103.721 147.058 103.721V101.721C135.914 101.721 126.767 92.0363 126.767 79.9448H124.767ZM140.06 57.3634C131.145 60.5043 124.767 69.4545 124.767 79.9448H126.767C126.767 70.2574 132.652 62.094 140.725 59.2498L140.06 57.3634ZM137.641 49.246C137.641 52.5959 138.291 55.7874 139.466 58.6826L141.319 57.9306C140.241 55.2723 139.641 52.336 139.641 49.246H137.641ZM159.933 25.4694C147.559 25.4694 137.641 36.1791 137.641 49.246H139.641C139.641 37.1545 148.789 27.4694 159.933 27.4694V25.4694ZM171.329 28.807C167.997 26.689 164.098 25.4694 159.933 25.4694V27.4694C163.701 27.4694 167.229 28.571 170.256 30.4949L171.329 28.807ZM191.622 10.6152C180.851 10.6152 171.932 18.7404 169.811 29.4568L171.773 29.8451C173.731 19.954 181.915 12.6152 191.622 12.6152V10.6152ZM208.784 19.2173C204.707 13.976 198.541 10.6152 191.622 10.6152V12.6152C197.868 12.6152 203.472 15.6459 207.206 20.4453L208.784 19.2173ZM208.886 18.7115C208.546 18.7531 208.206 18.7958 207.867 18.8395L208.123 20.8231C208.457 20.7799 208.793 20.7378 209.129 20.6967L208.886 18.7115ZM228.261 5.66373C219.32 5.66373 211.648 11.2698 208.093 19.2993L209.922 20.1089C213.192 12.7212 220.197 7.66373 228.261 7.66373V5.66373ZM247.825 18.0341C244.053 10.6879 236.724 5.66373 228.261 5.66373V7.66373C235.896 7.66373 242.579 12.1954 246.046 18.9476L247.825 18.0341ZM266.883 2.69287C257.276 2.69287 249.137 9.16239 245.991 18.1608L247.879 18.8209C250.777 10.5315 258.221 4.69287 266.883 4.69287V2.69287ZM289.174 26.4694C289.174 13.4026 279.257 2.69287 266.883 2.69287V4.69287C278.027 4.69287 287.174 14.378 287.174 26.4694H289.174ZM121.796 99.7505C121.796 105.259 117.545 109.644 112.398 109.644V111.644C118.737 111.644 123.796 106.275 123.796 99.7505H121.796ZM112.398 89.8574C117.545 89.8574 121.796 94.2423 121.796 99.7505H123.796C123.796 93.2265 118.737 87.8574 112.398 87.8574V89.8574ZM103 99.7505C103 94.2423 107.251 89.8574 112.398 89.8574V87.8574C106.06 87.8574 101 93.2265 101 99.7505H103ZM112.398 109.644C107.251 109.644 103 105.259 103 99.7505H101C101 106.275 106.06 111.644 112.398 111.644V109.644Z" fill="black" mask="url(#path-20-inside-1_3157_31527)"/>
<path d="M192.634 42.8473C193.912 40.438 189.567 39.4251 186.502 42.5997C185.997 43.0501 185.388 43.5884 184.719 44.1754C185.055 43.3136 186.881 39.7455 184.298 39.555C180.411 39.5923 169.178 47.6351 167.517 52.6624C165.697 58.1714 171.099 60.0809 173.819 59.2878C174.053 59.2194 174.26 59.047 174.426 58.8444C177.078 55.6163 188.415 45.4171 192.098 43.3488C192.312 43.2282 192.519 43.0638 192.634 42.8473Z" fill="#252525" fill-opacity="0.2"/>
<path d="M174.523 54.2654C174.887 53.6532 175.625 52.2639 175.664 51.6043M175.664 51.6043C177.14 50.7195 181.593 46.9164 184.719 44.1754M175.664 51.6043C174.924 51.7005 173.398 51.7701 173.221 51.2789M184.719 44.1754C185.388 43.5884 185.997 43.0501 186.502 42.5997C189.567 39.4251 193.912 40.438 192.634 42.8473C192.519 43.0638 192.312 43.2282 192.098 43.3488C188.415 45.4171 177.078 55.6163 174.426 58.8444C174.26 59.047 174.053 59.2194 173.819 59.2878C171.099 60.0809 165.697 58.1714 167.517 52.6624C169.178 47.6351 180.411 39.5923 184.298 39.555C186.881 39.7455 185.055 43.3136 184.719 44.1754Z" stroke="black" stroke-width="1.05" stroke-linecap="round"/>
<path d="M196.761 42.302C189.16 42.9152 174.806 58.4363 172.409 61.8427C171.04 63.7889 172.718 65.9854 174.287 65.8898C170.38 72.6546 177.05 71.2239 179.252 69.0309C182.703 65.0308 193.949 54.8516 198.855 51.1924C198.906 51.1543 198.955 51.1133 199 51.0688C204.388 45.8287 200.295 42.1879 196.761 42.302Z" fill="#252525" fill-opacity="0.2"/>
<path d="M196.084 45.6835C195.528 46.032 194.488 47.0992 194.775 48.5793M194.775 48.5793C192.165 50.6817 181.909 58.7348 177.435 63.5288C176.152 64.9026 175.341 65.8256 174.287 65.8898M194.775 48.5793C195.665 48.3846 197.54 48.0709 197.917 48.3742M174.287 65.8898C172.718 65.9854 171.04 63.7889 172.409 61.8427C174.806 58.4363 189.16 42.9152 196.761 42.302C200.295 42.1879 204.388 45.8287 199 51.0688C198.955 51.1133 198.906 51.1543 198.855 51.1924C193.949 54.8516 182.703 65.0308 179.252 69.0309C177.05 71.2239 170.38 72.6546 174.287 65.8898Z" stroke="black" stroke-width="1.05" stroke-linecap="round"/>
<path d="M176.328 74.0558C177.282 68.7239 200.022 48.9418 205.329 47.3927C208.981 46.327 210.266 48.5465 209.936 50.3351C217.97 46.4054 217.615 53.5339 214.29 55.2802C210.966 57.0265 193.941 71.0899 184.96 79.3626C175.979 87.6353 175.374 79.3877 176.328 74.0558Z" fill="#252525" fill-opacity="0.2"/>
<path d="M182.523 72.2968C183.326 71.8438 185.17 71.1335 186.122 71.9163M186.122 71.9163C190.427 66.2303 205.974 53.4274 208.542 52.2261C209.398 51.8256 209.785 51.1461 209.936 50.3351M186.122 71.9163C185.635 72.4328 184.692 73.7298 184.82 74.7857M209.936 50.3351C210.266 48.5465 208.981 46.327 205.329 47.3927C200.022 48.9418 177.282 68.7239 176.328 74.0558C175.374 79.3877 175.979 87.6353 184.96 79.3626C193.941 71.0899 210.966 57.0265 214.29 55.2802C217.615 53.5339 217.97 46.4054 209.936 50.3351Z" stroke="black" stroke-width="1.05" stroke-linecap="round"/>
<path d="M225.596 72.108C223.69 70.1858 222.956 67.5479 222.783 65.3518C222.68 64.0334 224.058 63.2668 225.254 63.8316L226.322 64.336C226.944 64.6299 227.366 65.2275 227.44 65.9116C227.577 67.1805 227.774 68.8898 227.99 70.5529C228.188 72.0695 226.673 73.1938 225.596 72.108Z" fill="white" stroke="black" stroke-width="1.05" stroke-linecap="round"/>
<path d="M230.102 53.9178C239.259 55.3738 240.16 64.4133 239.467 68.751C238.166 75.6672 233.561 77.3527 233.835 71.652C234.109 65.9512 230.102 66.84 227.674 66.476C225.246 66.112 220.91 65.566 220.477 63.1999C219.523 57.6488 225.072 52.9167 230.102 53.9178Z" fill="white" stroke="black" stroke-width="1.05" stroke-linecap="round"/>
<ellipse cx="207.716" cy="56.6656" rx="3.18142" ry="7.63759" transform="rotate(1.51108 207.716 56.6656)" fill="black"/>
<ellipse cx="217.118" cy="56.6656" rx="3.18142" ry="7.63759" transform="rotate(1.51108 217.118 56.6656)" fill="black"/>
<path d="M206.443 87.0035C204.537 85.0813 203.802 82.4434 203.63 80.2473C203.526 78.9289 204.905 78.1623 206.101 78.7271L207.168 79.2315C207.79 79.5254 208.213 80.123 208.287 80.8071C208.424 82.076 208.62 83.7853 208.837 85.4484C209.034 86.965 207.52 88.0893 206.443 87.0035Z" fill="white" stroke="black" stroke-width="1.05" stroke-linecap="round"/>
<path d="M210.948 68.8133C220.105 70.2693 221.007 79.3088 220.313 83.6466C219.013 90.5627 214.407 92.2482 214.681 86.5475C214.955 80.8467 210.948 81.7355 208.52 81.3715C206.092 81.0075 201.757 80.4615 201.323 78.0954C200.369 72.5443 205.919 67.8122 210.948 68.8133Z" fill="white" stroke="black" stroke-width="1.05" stroke-linecap="round"/>
<path d="M220.868 56.0914C220.698 62.5365 217.927 67.6919 214.678 67.6062C211.429 67.5205 208.933 62.2262 209.103 55.781C209.273 49.3358 212.045 44.1805 215.294 44.2662C218.543 44.3519 221.039 49.6462 220.868 56.0914Z" fill="white"/>
<path d="M214.678 67.6062L214.692 67.0814L214.678 67.6062ZM215.294 44.2662L215.308 43.7414L215.294 44.2662ZM220.344 56.0775C220.26 59.2357 219.539 62.0519 218.465 64.0493C217.376 66.0764 216.013 67.1162 214.692 67.0814L214.664 68.131C216.592 68.1819 218.24 66.6868 219.39 64.5465C220.557 62.3763 221.307 59.3922 221.393 56.1052L220.344 56.0775ZM214.692 67.0814C213.371 67.0465 212.065 65.9363 211.083 63.8545C210.116 61.8033 209.545 58.953 209.628 55.7949L208.578 55.7672C208.492 59.0542 209.083 62.0736 210.134 64.3023C211.17 66.5003 212.736 68.0802 214.664 68.131L214.692 67.0814ZM209.628 55.7949C209.711 52.6367 210.432 49.8205 211.506 47.8231C212.596 45.796 213.959 44.7562 215.28 44.791L215.308 43.7414C213.379 43.6905 211.732 45.1856 210.581 47.3259C209.415 49.4961 208.665 52.4802 208.578 55.7672L209.628 55.7949ZM215.28 44.791C216.601 44.8258 217.907 45.936 218.888 48.0179C219.855 50.0691 220.427 52.9194 220.344 56.0775L221.393 56.1052C221.48 52.8182 220.889 49.7988 219.838 47.5701C218.802 45.372 217.236 43.7922 215.308 43.7414L215.28 44.791Z" fill="black"/>
<path d="M211.466 56.0914C211.296 62.5365 208.524 67.6919 205.275 67.6062C202.026 67.5205 199.53 62.2262 199.7 55.781C199.87 49.3358 202.642 44.1805 205.891 44.2662C209.14 44.3519 211.636 49.6462 211.466 56.0914Z" fill="white"/>
<path d="M205.275 67.6062L205.289 67.0814L205.275 67.6062ZM205.891 44.2662L205.905 43.7414L205.891 44.2662ZM210.941 56.0775C210.858 59.2357 210.136 62.0519 209.063 64.0493C207.973 66.0764 206.61 67.1162 205.289 67.0814L205.261 68.131C207.189 68.1819 208.837 66.6868 209.987 64.5465C211.154 62.3763 211.904 59.3922 211.99 56.1052L210.941 56.0775ZM205.289 67.0814C203.968 67.0465 202.662 65.9363 201.681 63.8545C200.713 61.8033 200.142 58.953 200.225 55.7949L199.176 55.7672C199.089 59.0542 199.68 62.0736 200.731 64.3023C201.767 66.5003 203.333 68.0802 205.261 68.131L205.289 67.0814ZM200.225 55.7949C200.308 52.6367 201.03 49.8205 202.103 47.8231C203.193 45.796 204.556 44.7562 205.877 44.791L205.905 43.7414C203.977 43.6905 202.329 45.1856 201.179 47.3259C200.012 49.4961 199.262 52.4802 199.176 55.7672L200.225 55.7949ZM205.877 44.791C207.198 44.8258 208.504 45.936 209.485 48.0179C210.452 50.0691 211.024 52.9194 210.941 56.0775L211.99 56.1052C212.077 52.8182 211.486 49.7988 210.435 47.5701C209.399 45.372 207.833 43.7922 205.905 43.7414L205.877 44.791Z" fill="black"/>
<path fill-rule="evenodd" clip-rule="evenodd" d="M207.214 63.6351C208.971 63.6814 210.485 60.3007 210.596 56.084C210.611 55.5288 210.6 54.9868 210.567 54.464C210.165 54.862 209.648 55.1012 209.084 55.1012C207.799 55.1012 206.757 53.856 206.757 52.3199C206.757 50.7838 207.799 49.5385 209.084 49.5385C209.143 49.5385 209.201 49.5411 209.258 49.5461C208.791 48.8125 208.23 48.3814 207.617 48.3652C205.861 48.3189 204.347 51.6996 204.235 55.9163C204.124 60.1329 205.458 63.5888 207.214 63.6351Z" fill="black"/>
<path fill-rule="evenodd" clip-rule="evenodd" d="M214.832 63.6351C216.588 63.6814 218.102 60.3007 218.214 56.084C218.232 55.3831 218.211 54.7032 218.154 54.0564C217.851 54.2603 217.501 54.3767 217.128 54.3767C215.976 54.3767 215.042 53.2668 215.042 51.8976C215.042 50.6567 215.809 49.6287 216.81 49.4471C216.357 48.7738 215.819 48.3806 215.235 48.3652C213.478 48.3189 211.964 51.6996 211.853 55.9163C211.742 60.1329 213.075 63.5888 214.832 63.6351Z" fill="black"/>
<path d="M232.247 66.6154C233.525 64.206 229.181 63.1931 226.116 66.3677C225.61 66.8182 225.002 67.3565 224.332 67.9435C224.668 67.0817 226.494 63.5136 223.911 63.323C220.024 63.3604 208.792 71.4031 207.131 76.4305C205.311 81.9395 210.712 83.8489 213.433 83.0558C213.667 82.9875 213.873 82.8151 214.04 82.6124C216.691 79.3843 228.028 69.1852 231.711 67.1168C231.926 66.9962 232.132 66.8319 232.247 66.6154Z" fill="#7055FF"/>
<path d="M214.137 78.0335C214.501 77.4213 215.239 76.032 215.278 75.3724M215.278 75.3724C216.754 74.4876 221.206 70.6844 224.332 67.9435M215.278 75.3724C214.537 75.4686 213.012 75.5382 212.834 75.047M224.332 67.9435C225.002 67.3565 225.61 66.8182 226.116 66.3677C229.181 63.1931 233.525 64.206 232.247 66.6154C232.132 66.8319 231.926 66.9962 231.711 67.1168C228.028 69.1852 216.691 79.3843 214.04 82.6124C213.873 82.8151 213.667 82.9875 213.433 83.0558C210.712 83.8489 205.311 81.9395 207.131 76.4305C208.792 71.4031 220.024 63.3604 223.911 63.323C226.494 63.5136 224.668 67.0817 224.332 67.9435Z" stroke="black" stroke-width="1.05" stroke-linecap="round"/>
<path d="M236.374 66.07C228.773 66.6833 214.42 82.2044 212.023 85.6108C210.653 87.557 212.331 89.7534 213.9 89.6578C209.993 96.4227 216.663 94.9919 218.865 92.799C222.316 88.7988 233.563 78.6196 238.469 74.9605C238.52 74.9223 238.568 74.8813 238.614 74.8368C244.001 69.5968 239.908 65.956 236.374 66.07Z" fill="#7055FF"/>
<path d="M235.697 69.4515C235.141 69.8001 234.101 70.8672 234.388 72.3473M234.388 72.3473C231.779 74.4498 221.523 82.5028 217.048 87.2969C215.766 88.6707 214.954 89.5937 213.9 89.6578M234.388 72.3473C235.278 72.1526 237.153 71.839 237.53 72.1423M213.9 89.6578C212.331 89.7534 210.653 87.557 212.023 85.6108C214.42 82.2044 228.773 66.6833 236.374 66.07C239.908 65.956 244.001 69.5968 238.614 74.8368C238.568 74.8813 238.52 74.9223 238.469 74.9605C233.563 78.6196 222.316 88.7988 218.865 92.799C216.663 94.9919 209.993 96.4227 213.9 89.6578Z" stroke="black" stroke-width="1.05" stroke-linecap="round"/>
<path d="M215.942 97.8239C216.896 92.492 239.635 72.7098 244.943 71.1608C248.594 70.095 249.88 72.3146 249.549 74.1031C257.583 70.1734 257.228 77.302 253.904 79.0483C250.58 80.7945 233.555 94.858 224.574 103.131C215.593 111.403 214.988 103.156 215.942 97.8239Z" fill="#7055FF"/>
<path d="M222.136 96.0648C222.939 95.6118 224.784 94.9016 225.736 95.6844M225.736 95.6844C230.041 89.9983 245.588 77.1955 248.155 75.9941C249.011 75.5937 249.399 74.9142 249.549 74.1031M225.736 95.6844C225.248 96.2009 224.305 97.4979 224.433 98.5538M249.549 74.1031C249.88 72.3146 248.594 70.095 244.943 71.1608C239.635 72.7098 216.896 92.492 215.942 97.8239C214.988 103.156 215.593 111.403 224.574 103.131C233.555 94.858 250.58 80.7945 253.904 79.0483C257.228 77.302 257.583 70.1734 249.549 74.1031Z" stroke="black" stroke-width="1.05" stroke-linecap="round"/>
<path d="M265.209 95.8765C263.302 93.9544 262.568 91.3165 262.396 89.1204C262.292 87.8019 263.67 87.0353 264.866 87.6002L265.934 88.1045C266.556 88.3984 266.978 88.9961 267.052 89.6802C267.19 90.949 267.386 92.6584 267.602 94.3215C267.8 95.8381 266.286 96.9624 265.209 95.8765Z" fill="white" stroke="black" stroke-width="1.05" stroke-linecap="round"/>
<path d="M269.714 77.6863C278.871 79.1423 279.773 88.1819 279.079 92.5196C277.778 99.4357 273.173 101.121 273.447 95.4205C273.721 89.7198 269.714 90.6086 267.286 90.2446C264.858 89.8806 260.522 89.3345 260.089 86.9685C259.135 81.4174 264.685 76.6853 269.714 77.6863Z" fill="white" stroke="black" stroke-width="1.05" stroke-linecap="round"/>
<ellipse cx="247.33" cy="80.4337" rx="3.18142" ry="7.63759" transform="rotate(1.51108 247.33 80.4337)" fill="black"/>
<ellipse cx="256.732" cy="80.4337" rx="3.18142" ry="7.63759" transform="rotate(1.51108 256.732 80.4337)" fill="black"/>
<path d="M246.057 110.772C244.151 108.85 243.416 106.212 243.244 104.016C243.14 102.697 244.519 101.931 245.715 102.496L246.782 103C247.404 103.294 247.827 103.892 247.901 104.576C248.038 105.845 248.234 107.554 248.451 109.217C248.648 110.734 247.134 111.858 246.057 110.772Z" fill="white" stroke="black" stroke-width="1.05" stroke-linecap="round"/>
<path d="M250.562 92.5818C259.719 94.0378 260.621 103.077 259.927 107.415C258.627 114.331 254.021 116.017 254.295 110.316C254.569 104.615 250.562 105.504 248.134 105.14C245.706 104.776 241.371 104.23 240.937 101.864C239.983 96.3129 245.533 91.5808 250.562 92.5818Z" fill="white" stroke="black" stroke-width="1.05" stroke-linecap="round"/>
<path d="M260.483 79.8599C260.313 86.3051 257.541 91.4605 254.292 91.3748C251.044 91.2891 248.548 85.9947 248.718 79.5496C248.888 73.1044 251.659 67.949 254.908 68.0347C258.157 68.1204 260.653 73.4148 260.483 79.8599Z" fill="white"/>
<path d="M254.292 91.3748L254.306 90.8499L254.292 91.3748ZM254.908 68.0347L254.922 67.5099L254.908 68.0347ZM259.958 79.8461C259.875 83.0043 259.154 85.8204 258.08 87.8178C256.99 89.845 255.627 90.8848 254.306 90.8499L254.279 91.8996C256.207 91.9504 257.854 90.4554 259.005 88.315C260.171 86.1449 260.921 83.1608 261.008 79.8738L259.958 79.8461ZM254.306 90.8499C252.986 90.8151 251.679 89.7049 250.698 87.6231C249.731 85.5719 249.159 82.7216 249.242 79.5634L248.193 79.5357C248.106 82.8227 248.697 85.8422 249.748 88.0708C250.784 90.2689 252.351 91.8487 254.279 91.8996L254.306 90.8499ZM249.242 79.5634C249.326 76.4052 250.047 73.5891 251.121 71.5917C252.211 69.5645 253.574 68.5247 254.894 68.5596L254.922 67.5099C252.994 67.4591 251.347 68.9541 250.196 71.0945C249.029 73.2646 248.28 76.2487 248.193 79.5357L249.242 79.5634ZM254.894 68.5596C256.215 68.5944 257.521 69.7046 258.503 71.7864C259.47 73.8376 260.041 76.6879 259.958 79.8461L261.008 79.8738C261.095 76.5868 260.503 73.5673 259.453 71.3387C258.416 69.1406 256.85 67.5608 254.922 67.5099L254.894 68.5596Z" fill="black"/>
<path d="M251.08 79.8599C250.91 86.3051 248.139 91.4605 244.89 91.3748C241.641 91.2891 239.145 85.9947 239.315 79.5496C239.485 73.1044 242.256 67.949 245.505 68.0347C248.754 68.1204 251.25 73.4148 251.08 79.8599Z" fill="white"/>
<path d="M244.89 91.3748L244.903 90.8499L244.89 91.3748ZM245.505 68.0347L245.519 67.5099L245.505 68.0347ZM250.555 79.8461C250.472 83.0043 249.751 85.8204 248.677 87.8178C247.587 89.845 246.224 90.8848 244.903 90.8499L244.876 91.8996C246.804 91.9504 248.451 90.4554 249.602 88.315C250.769 86.1449 251.518 83.1608 251.605 79.8738L250.555 79.8461ZM244.903 90.8499C243.583 90.8151 242.276 89.7049 241.295 87.6231C240.328 85.5719 239.756 82.7216 239.84 79.5634L238.79 79.5357C238.703 82.8227 239.295 85.8422 240.345 88.0708C241.382 90.2689 242.948 91.8487 244.876 91.8996L244.903 90.8499ZM239.84 79.5634C239.923 76.4052 240.644 73.5891 241.718 71.5917C242.808 69.5645 244.171 68.5247 245.492 68.5596L245.519 67.5099C243.591 67.4591 241.944 68.9541 240.793 71.0945C239.626 73.2646 238.877 76.2487 238.79 79.5357L239.84 79.5634ZM245.492 68.5596C246.812 68.5944 248.119 69.7046 249.1 71.7864C250.067 73.8376 250.639 76.6879 250.555 79.8461L251.605 79.8738C251.692 76.5868 251.1 73.5673 250.05 71.3387C249.013 69.1406 247.447 67.5608 245.519 67.5099L245.492 68.5596Z" fill="black"/>
<path fill-rule="evenodd" clip-rule="evenodd" d="M246.828 87.4012C248.584 87.4475 250.098 84.0668 250.209 79.8502C250.224 79.2949 250.214 78.7529 250.18 78.2301C249.778 78.6282 249.261 78.8673 248.698 78.8673C247.412 78.8673 246.37 77.6221 246.37 76.086C246.37 74.5499 247.412 73.3046 248.698 73.3046C248.756 73.3046 248.814 73.3072 248.871 73.3122C248.404 72.5786 247.843 72.1475 247.23 72.1313C245.474 72.085 243.96 75.4657 243.849 79.6824C243.737 83.899 245.071 87.3549 246.828 87.4012Z" fill="black"/>
<path fill-rule="evenodd" clip-rule="evenodd" d="M254.445 87.4012C256.202 87.4475 257.716 84.0668 257.827 79.8502C257.845 79.1492 257.824 78.4693 257.767 77.8225C257.464 78.0264 257.114 78.1428 256.741 78.1428C255.589 78.1428 254.655 77.0329 254.655 75.6637C254.655 74.4228 255.422 73.3949 256.424 73.2132C255.971 72.5399 255.433 72.1468 254.848 72.1313C253.092 72.085 251.578 75.4657 251.466 79.6824C251.355 83.899 252.689 87.3549 254.445 87.4012Z" fill="black"/>
<path d="M52.9775 56.1765C57.1956 51.775 69.1529 44.9527 83.2376 52.8754" stroke="black"/>
<path d="M82.1375 53.2189C86.3555 48.8175 98.3128 41.9952 112.397 49.9178" stroke="black"/>
<path d="M135.669 145.302C139.044 141.781 148.609 136.323 159.877 142.661" stroke="black"/>
<path d="M158.998 142.937C162.372 139.416 171.938 133.958 183.206 140.296" stroke="black"/>
<path d="M284.212 140.352C286.321 138.151 292.3 134.74 299.342 138.701" stroke="black"/>
<path d="M298.792 138.872C300.901 136.671 306.88 133.26 313.922 137.222" stroke="black"/>
</svg>
