<svg width="308" height="296" viewBox="0 0 308 296" fill="none" xmlns="http://www.w3.org/2000/svg">
<path d="M5.00027 194.501C-19.8871 257.758 64.7845 287.38 124.501 293.501C184.217 299.622 275.93 296.935 299 210.501C329.696 95.4952 269.5 37.8646 215.5 28.5001C161.5 19.1355 157.5 68.4999 130.717 103.084C106.191 134.754 29.8876 131.243 5.00027 194.501Z" fill="#7055FF"/>
<path d="M87.9733 108.753C92.9455 100.574 78.43 96.942 68.2467 107.489C66.599 108.958 64.6151 110.712 62.4329 112.626C63.5276 109.816 69.4799 98.1851 61.0599 97.5639C48.3892 97.6857 11.774 123.904 6.36003 140.292C0.314232 158.593 18.7153 164.708 27.3995 161.732C27.8383 161.581 28.2105 161.282 28.5158 160.896C36.5324 150.776 75.3359 115.844 86.9676 109.668C87.3742 109.452 87.7319 109.15 87.9733 108.753Z" fill="white"/>
<path d="M29.1971 145.517C30.3844 143.522 32.7906 138.993 32.9174 136.843M32.9174 136.843C37.7293 133.958 52.2432 121.561 62.4329 112.626M32.9174 136.843C30.5031 137.156 25.5298 137.383 24.9511 135.782M62.4329 112.626C64.6151 110.712 66.599 108.958 68.2467 107.489C78.43 96.942 92.9455 100.574 87.9733 108.753C87.7319 109.15 87.3742 109.452 86.9676 109.668C75.3359 115.844 36.5324 150.776 28.5158 160.896C28.2105 161.282 27.8383 161.581 27.3995 161.732C18.7153 164.708 0.314232 158.593 6.36003 140.292C11.774 123.904 48.3892 97.6857 61.0599 97.5639C69.4799 98.1851 63.5276 109.816 62.4329 112.626Z" stroke="black" stroke-width="3.87979" stroke-linecap="round"/>
<path d="M101.688 106.521C76.9104 108.52 30.1201 159.115 22.3066 170.22C17.8425 176.564 23.312 183.724 28.4277 183.412C15.6904 205.465 37.4337 200.801 44.6119 193.652C55.8855 180.584 92.6806 147.287 108.618 135.425C108.714 135.354 108.804 135.277 108.89 135.193C126.6 118.061 113.229 106.148 101.688 106.521Z" fill="white"/>
<path d="M99.4817 117.544C97.6688 118.68 94.2772 122.159 95.2142 126.983M95.2142 126.983C86.7077 133.837 53.2753 160.088 38.6884 175.716C34.5082 180.194 31.8631 183.203 28.4277 183.412M95.2142 126.983C98.1159 126.349 104.227 125.326 105.456 126.315M28.4277 183.412C23.312 183.724 17.8425 176.564 22.3066 170.22C30.1201 159.115 76.9104 108.52 101.688 106.521C113.229 106.148 126.6 118.061 108.89 135.193C108.804 135.277 108.714 135.354 108.618 135.425C92.6806 147.287 55.8855 180.584 44.6119 193.652C37.4337 200.801 15.6904 205.465 28.4277 183.412Z" stroke="black" stroke-width="3.87979" stroke-linecap="round"/>
<path d="M35.0782 210.029C38.1885 192.648 112.314 128.162 129.615 123.112C141.518 119.638 145.71 126.873 144.631 132.704C170.821 119.894 169.663 143.131 158.827 148.824C147.991 154.517 92.492 200.361 63.2158 227.328C33.9395 254.296 31.9678 227.41 35.0782 210.029Z" fill="white"/>
<path d="M55.2712 204.295C57.8891 202.818 63.9006 200.503 67.0039 203.055M67.0039 203.055C81.0377 184.519 131.718 142.784 140.088 138.868C142.878 137.563 144.142 135.348 144.631 132.704M67.0039 203.055C65.4147 204.738 62.341 208.966 62.7588 212.408M144.631 132.704C145.71 126.873 141.518 119.638 129.615 123.112C112.314 128.162 38.1885 192.648 35.0782 210.029C31.9678 227.41 33.9395 254.296 63.2158 227.328C92.492 200.361 147.991 154.517 158.827 148.824C169.663 143.131 170.821 119.894 144.631 132.704Z" stroke="black" stroke-width="3.87979" stroke-linecap="round"/>
<path d="M199.364 150.561C189.01 157.775 186.336 170.513 186.375 179.36C186.386 181.843 188.992 183.268 191.236 182.208L199.433 178.336C200.601 177.784 201.394 176.664 201.53 175.379C202.095 170.041 203.085 161.36 204.132 153.952C204.534 151.109 201.72 148.92 199.364 150.561Z" fill="white" stroke="black" stroke-width="3.87979" stroke-linecap="round"/>
<path d="M210.365 212.952C240.215 208.206 243.154 178.738 240.893 164.598C236.653 142.053 221.641 136.558 222.534 155.142C223.427 173.725 210.365 170.828 202.45 172.014C194.536 173.201 180.403 174.981 178.989 182.694C175.88 200.789 193.971 216.215 210.365 212.952Z" fill="white" stroke="black" stroke-width="3.87979" stroke-linecap="round"/>
<ellipse cx="137.398" cy="153.342" rx="10.3708" ry="24.8971" transform="rotate(1.51109 137.398 153.342)" fill="black"/>
<ellipse cx="168.049" cy="153.342" rx="10.3708" ry="24.8971" transform="rotate(1.51109 168.049 153.342)" fill="black"/>
<path d="M136.931 255.333C126.576 248.118 123.902 235.38 123.942 226.533C123.953 224.051 126.558 222.625 128.803 223.686L137 227.558C138.167 228.109 138.96 229.23 139.096 230.514C139.661 235.853 140.652 244.533 141.699 251.942C142.1 254.785 139.286 256.974 136.931 255.333Z" fill="white" stroke="black" stroke-width="3.87979" stroke-linecap="round"/>
<path d="M147.932 192.942C177.781 197.688 180.721 227.155 178.459 241.295C174.22 263.841 159.208 269.335 160.1 250.752C160.993 232.168 147.931 235.066 140.017 233.879C132.102 232.693 117.969 230.913 116.556 223.2C113.446 205.104 131.537 189.678 147.932 192.942Z" fill="white" stroke="black" stroke-width="3.87979" stroke-linecap="round"/>
<path fill-rule="evenodd" clip-rule="evenodd" d="M155.021 115.375C147.751 120.74 142.345 134.372 141.92 150.474C141.366 171.485 149.502 188.743 160.093 189.022C170.684 189.302 179.719 172.496 180.273 151.486C180.528 141.803 178.938 132.917 176.112 126.123C172.814 125.659 169.216 124.586 165.635 122.891C161.291 120.834 157.641 118.179 155.021 115.375Z" fill="white"/>
<path d="M141.92 150.474L143.859 150.526L141.92 150.474ZM155.021 115.375L156.439 114.051L155.26 112.788L153.87 113.814L155.021 115.375ZM160.093 189.022L160.144 187.083L160.093 189.022ZM180.273 151.486L182.212 151.537L180.273 151.486ZM176.112 126.123L177.903 125.378L177.478 124.356L176.382 124.202L176.112 126.123ZM165.635 122.891L166.465 121.137V121.137L165.635 122.891ZM143.859 150.526C144.067 142.668 145.49 135.452 147.717 129.587C149.958 123.686 152.949 119.315 156.173 116.936L153.87 113.814C149.823 116.8 146.476 121.927 144.09 128.209C141.691 134.527 140.199 142.179 139.981 150.423L143.859 150.526ZM160.144 187.083C155.971 186.973 151.769 183.456 148.582 176.695C145.448 170.047 143.589 160.793 143.859 150.526L139.981 150.423C139.698 161.166 141.629 171.046 145.073 178.35C148.462 185.54 153.625 190.792 160.042 190.962L160.144 187.083ZM178.334 151.435C178.063 161.702 175.718 170.846 172.238 177.319C168.699 183.903 164.318 187.193 160.144 187.083L160.042 190.962C166.459 191.131 171.891 186.158 175.655 179.156C179.479 172.044 181.929 162.28 182.212 151.537L178.334 151.435ZM174.321 126.868C177.025 133.369 178.583 141.977 178.334 151.435L182.212 151.537C182.473 141.63 180.851 132.465 177.903 125.378L174.321 126.868ZM176.382 124.202C173.293 123.767 169.884 122.756 166.465 121.137L164.805 124.644C168.549 126.417 172.334 127.551 175.842 128.044L176.382 124.202ZM166.465 121.137C162.314 119.172 158.871 116.655 156.439 114.051L153.604 116.699C156.41 119.704 160.268 122.496 164.805 124.644L166.465 121.137Z" fill="black"/>
<path fill-rule="evenodd" clip-rule="evenodd" d="M116.458 126.013C113.451 132.569 111.516 141.104 111.269 150.476C110.715 171.486 118.851 188.744 129.442 189.024C140.032 189.303 149.067 172.498 149.621 151.488C150.036 135.787 145.596 122.181 138.906 116.19C136.42 118.55 133.214 120.753 129.498 122.519C124.965 124.674 120.406 125.83 116.458 126.013Z" fill="white"/>
<path d="M111.269 150.476L113.208 150.527L111.269 150.476ZM116.458 126.013L116.368 124.075L115.188 124.13L114.695 125.204L116.458 126.013ZM129.442 189.024L129.493 187.085L129.442 189.024ZM149.621 151.488L151.561 151.539L149.621 151.488ZM138.906 116.19L140.2 114.745L138.868 113.552L137.571 114.783L138.906 116.19ZM129.498 122.519L128.665 120.767L129.498 122.519ZM113.208 150.527C113.45 141.374 115.34 133.103 118.221 126.822L114.695 125.204C111.562 132.034 109.583 140.834 109.33 150.425L113.208 150.527ZM129.493 187.085C125.319 186.974 121.118 183.458 117.931 176.697C114.797 170.049 112.937 160.794 113.208 150.527L109.33 150.425C109.046 161.168 110.978 171.047 114.421 178.351C117.811 185.542 122.973 190.794 129.39 190.963L129.493 187.085ZM147.682 151.436C147.411 161.703 145.067 170.847 141.587 177.321C138.047 183.904 133.666 187.195 129.493 187.085L129.39 190.963C135.808 191.132 141.24 186.16 145.004 179.158C148.827 172.046 151.277 162.282 151.561 151.539L147.682 151.436ZM137.612 117.636C140.603 120.313 143.24 124.851 145.075 130.772C146.9 136.661 147.884 143.775 147.682 151.436L151.561 151.539C151.773 143.499 150.744 135.959 148.781 129.623C146.827 123.319 143.9 118.058 140.2 114.745L137.612 117.636ZM137.571 114.783C135.245 116.99 132.212 119.081 128.665 120.767L130.331 124.271C134.215 122.425 137.594 120.109 140.242 117.598L137.571 114.783ZM128.665 120.767C124.333 122.827 120.025 123.906 116.368 124.075L116.548 127.951C120.787 127.754 125.598 126.521 130.331 124.271L128.665 120.767Z" fill="black"/>
<ellipse cx="136.42" cy="151.175" rx="10.3708" ry="24.8971" transform="rotate(1.51109 136.42 151.175)" fill="black"/>
<ellipse cx="161.251" cy="151.175" rx="10.3708" ry="24.8971" transform="rotate(1.51109 161.251 151.175)" fill="black"/>
<path d="M283.663 99.2512C283.663 100.062 283.101 101.173 281.263 102.464C279.47 103.723 276.769 104.924 273.282 105.96C266.33 108.025 256.627 109.326 245.84 109.326C235.052 109.326 225.35 108.025 218.397 105.96C214.911 104.924 212.209 103.723 210.417 102.464C208.578 101.173 208.017 100.062 208.017 99.2512C208.017 98.4403 208.578 97.3293 210.417 96.0382C212.209 94.7791 214.911 93.5782 218.397 92.5424C225.35 90.4771 235.052 89.1761 245.84 89.1761C256.627 89.1761 266.33 90.4771 273.282 92.5424C276.769 93.5782 279.47 94.7791 281.263 96.0382C283.101 97.3293 283.663 98.4403 283.663 99.2512Z" fill="white" stroke="black" stroke-width="3.30332"/>
<path d="M224.323 21.0222C235.933 9.41194 254.757 9.41195 266.367 21.0222L267.458 22.1133C277.218 31.8738 278.977 47.0684 271.704 58.8003L246.336 99.7205L219.755 58.9811C212.071 47.2049 213.689 31.6561 223.631 21.7134L224.323 21.0222Z" fill="white" stroke="black" stroke-width="3.11626"/>
<circle cx="245.675" cy="43.0028" r="18.5921" fill="#7055FF" stroke="black" stroke-width="3.11626"/>
</svg>
