<svg width="35" height="36" viewBox="0 0 35 36" fill="none" xmlns="http://www.w3.org/2000/svg">
<path fill-rule="evenodd" clip-rule="evenodd" d="M0.579667 35.4512C0.579428 35.4512 0.579188 35.4512 0.578948 35.4512C0.259204 35.4512 0 35.192 0 34.8722V26.7839C0 26.4642 0.259204 26.205 0.578948 26.205C0.898692 26.205 1.1579 26.4642 1.1579 26.7839V33.2933C1.1579 33.8456 1.60561 34.2933 2.1579 34.2933L8.63071 34.2933C8.95045 34.2933 9.20965 34.5525 9.20965 34.8722C9.20965 35.192 8.95045 35.4512 8.63071 35.4512H0.580387C0.580147 35.4512 0.579907 35.4512 0.579667 35.4512Z" fill="black"/>
<path fill-rule="evenodd" clip-rule="evenodd" d="M0.579667 0.485352C0.579428 0.485352 0.579188 0.485352 0.578948 0.485352C0.259204 0.485352 0 0.744556 0 1.0643V9.15258C0 9.47232 0.259204 9.73152 0.578948 9.73152C0.898692 9.73152 1.1579 9.47232 1.1579 9.15258V2.64325C1.1579 2.09096 1.60561 1.64325 2.1579 1.64325L8.63071 1.64325C8.95045 1.64325 9.20965 1.38404 9.20965 1.0643C9.20965 0.744556 8.95045 0.485352 8.63071 0.485352H0.580387C0.580147 0.485352 0.579907 0.485352 0.579667 0.485352Z" fill="black"/>
<path fill-rule="evenodd" clip-rule="evenodd" d="M26.195 34.2912C25.8747 34.2912 25.615 34.5508 25.615 34.8712C25.615 35.1915 25.8747 35.4512 26.195 35.4512H34.3913H34.3917C34.712 35.4512 34.9717 35.1915 34.9717 34.8712C34.9717 34.8639 34.9715 34.8567 34.9713 34.8496V26.6358C34.9713 26.3155 34.7116 26.0558 34.3913 26.0558C34.071 26.0558 33.8113 26.3155 33.8113 26.6358V33.2912C33.8113 33.8435 33.3636 34.2912 32.8113 34.2912L26.195 34.2912Z" fill="black"/>
<path fill-rule="evenodd" clip-rule="evenodd" d="M26.195 1.64535C25.8747 1.64535 25.615 1.38568 25.615 1.06535C25.615 0.745027 25.8747 0.485352 26.195 0.485352H34.3913H34.3917C34.712 0.485352 34.9717 0.745026 34.9717 1.06535C34.9717 1.07258 34.9715 1.07978 34.9713 1.08695V9.30068C34.9713 9.62101 34.7116 9.88068 34.3913 9.88068C34.071 9.88068 33.8113 9.62101 33.8113 9.30068V2.64535C33.8113 2.09307 33.3636 1.64535 32.8113 1.64535L26.195 1.64535Z" fill="black"/>
<path d="M21.2577 8.27873C20.0733 9.82116 18.5595 10.5462 17.092 10.5462C15.6244 10.5462 14.1105 9.82107 12.9262 8.27869C12.3622 7.54428 11.3244 7.15056 10.3829 7.58717L3.76231 10.6572C2.91149 11.0518 2.46031 11.9945 2.68676 12.9046L3.44746 15.9618C3.70878 17.012 4.77307 17.6506 5.82272 17.3869L8.27842 16.7701C8.69022 16.6667 9.08948 16.978 9.08948 17.4026V29.1957C9.08948 30.2762 9.96544 31.1522 11.046 31.1522H23.1379C24.2184 31.1522 25.0944 30.2762 25.0944 29.1957V17.4026C25.0944 16.978 25.4937 16.6667 25.9055 16.7701L28.3612 17.3869C29.4108 17.6506 30.4751 17.012 30.7364 15.9618L31.4971 12.9046C31.7236 11.9945 31.2724 11.0518 30.4216 10.6572L23.801 7.58718C22.8594 7.15056 21.8217 7.5443 21.2577 8.27873Z" fill="white" stroke="#252525" stroke-width="1.30435" stroke-linecap="round"/>
</svg>
